<?xml version="1.0" encoding="UTF-8"?>
<svg width="1200pt" height="1200pt" version="1.1" viewBox="0 0 1200 1200" xmlns="http://www.w3.org/2000/svg">
 <path d="m525 757.69v67.312c0 41.438 33.562 75 75 75s75-33.562 75-75v-67.312c-23.812 7.125-48.938 11.062-75 11.062s-51.188-3.9375-75-11.062z"/>
 <path d="m543.75 75h112.5c20.711 0 37.5 20.711 37.5 37.5v131.25c0 20.711-16.789 37.5-37.5 37.5h-112.5c-20.711 0-37.5-20.711-37.5-37.5v-131.25c0-20.711 16.789-37.5 37.5-37.5z"/>
 <path d="m600 731.25c124.31 0 225-100.69 225-225h75v-150h-75c0-75.188-37.125-141.56-93.75-182.44v69.938c0 41.438-33.562 75-75 75h-112.5c-41.438 0-75-33.562-75-75v-69.938c-56.625 40.875-93.75 107.25-93.75 182.44h-75v150h75c0 124.31 100.69 225 225 225zm75-132.94h-150c-10.312 0-18.75-8.4375-18.75-18.75s8.4375-18.75 18.75-18.75h150c10.312 0 18.75 8.4375 18.75 18.75s-8.4375 18.75-18.75 18.75zm28.125-260.81c31.125 0 56.25 25.125 56.25 56.25s-25.125 56.25-56.25 56.25-56.25-25.125-56.25-56.25 25.125-56.25 56.25-56.25zm-206.25 0c31.125 0 56.25 25.125 56.25 56.25s-25.125 56.25-56.25 56.25-56.25-25.125-56.25-56.25 25.125-56.25 56.25-56.25z"/>
 <path d="m825 843.75h-114.19c-9 53.062-55.125 93.75-110.81 93.75s-101.81-40.688-110.81-93.75h-114.19c-82.875 0-150 67.125-150 150v131.25h187.5c0-82.688 67.312-150 150-150h75c82.688 0 150 67.312 150 150h187.5v-131.25c0-82.875-67.125-150-150-150z"/>
 <path d="m637.5 1012.5h-75c-62.062 0-112.5 50.438-112.5 112.5h300c0-62.062-50.438-112.5-112.5-112.5z"/>
</svg>
