<?xml version="1.0" encoding="UTF-8"?>
<svg width="1200pt" height="1200pt" version="1.1" viewBox="0 0 1200 1200" xmlns="http://www.w3.org/2000/svg">
 <path d="m1012.5 441.56v-296.81c11.25-6.5625 18.75-18.375 18.75-32.25 0-20.625-16.875-37.5-37.5-37.5s-37.5 16.875-37.5 37.5c0 13.875 7.5 25.875 18.75 32.25v286.5h-23.25c-21.938-117.38-124.88-206.25-248.62-206.25h-206.25c-123.75 0-226.69 88.875-248.62 206.25h-23.25v-286.5c11.25-6.5625 18.75-18.375 18.75-32.25 0-20.625-16.875-37.5-37.5-37.5s-37.5 16.875-37.5 37.5c0 13.875 7.5 25.875 18.75 32.25v296.81c-22.312 12.938-37.5 36.938-37.5 64.688 0 41.438 33.562 75 75 75h40.875c39.562 88.312 128.06 150 231 150h206.25c103.12 0 191.44-61.688 231-150h40.875c41.438 0 75-33.562 75-75 0-27.75-15.188-51.562-37.5-64.688zm-309.38 214.69h-206.25c-98.25 0-178.12-79.875-178.12-178.12s79.875-178.12 178.12-178.12h206.25c98.25 0 178.12 79.875 178.12 178.12s-79.875 178.12-178.12 178.12z"/>
 <path d="m768.75 951.56v60.938h-337.5v-60.938c-70.312-9.75-137.62-35.25-197.62-75-5.4375 25.688-8.625 52.312-8.625 79.688v168.75h750v-168.75c0-27.375-3.1875-54-8.625-79.688-60 39.75-127.31 65.25-197.62 75z"/>
 <path d="m955.88 838.69c-16.125-48.938-42.188-93.188-75.375-130.88-49.125 38.062-110.62 60.938-177.38 60.938h-206.25c-66.75 0-128.25-22.875-177.38-60.938-33.188 37.688-59.25 81.938-75.375 130.88 54.562 38.438 118.31 64.875 187.12 75v-69.938h337.5v69.938c68.812-10.125 132.56-36.562 187.12-75z"/>
 <path d="m504.56 400.88c-26.25 0.75-45.188 17.438-45.188 39.75 0 10.312 8.25 18.938 18.75 18.938s18.75-8.25 18.75-18.562c0.75-0.9375 5.4375-3.1875 11.625-2.625 5.625 0.375 8.625 2.4375 9 3.375 0.5625 10.312 9.75 18.188 19.875 17.625 10.312-0.5625 18.188-9.375 17.625-19.875-1.3125-23.25-22.875-39.562-50.062-38.812z"/>
 <path d="m695.44 400.88c-27.188-0.75-48.75 15.562-50.062 38.812-0.5625 10.312 7.3125 19.125 17.625 19.688 10.688 1.125 19.312-7.3125 19.875-17.625 0.375-0.75 3.375-2.8125 9-3.1875 6.375-0.5625 10.875 1.6875 11.438 2.0625 0 10.5 8.4375 18.938 18.75 18.938s18.75-8.4375 18.75-18.75c0-22.312-19.125-39-45.188-39.75z"/>
 <path d="m553.12 543.75c0 20.625 16.875 37.5 37.5 37.5h18.75c20.625 0 37.5-16.875 37.5-37.5v-18.75h-93.75z"/>
</svg>
