<?xml version="1.0" encoding="UTF-8"?>
<svg width="1200pt" height="1200pt" version="1.1" viewBox="0 0 1200 1200" xmlns="http://www.w3.org/2000/svg">
 <path d="m825 768.75h-131.25v-93.75c82.5-34.5 141.94-113.06 149.06-206.25h57.188c10.312 0 18.75-8.4375 18.75-18.75v-150c0-10.312-8.4375-18.75-18.75-18.75h-57.188c-9.5625-125.62-114.75-225-242.81-225s-233.25 99.375-242.81 225h-57.188c-10.312 0-18.75 8.4375-18.75 18.75v150c0 10.312 8.4375 18.75 18.75 18.75h57.188c7.125 93 66.562 171.75 149.06 206.25v93.75h-131.25c-93 0-168.75 75.75-168.75 168.75v187.5c0 10.312 8.4375 18.75 18.75 18.75h750c10.312 0 18.75-8.4375 18.75-18.75v-187.5c0-93-75.75-168.75-168.75-168.75zm56.25-337.5h-37.5v-112.5h37.5zm-562.5-112.5h37.5v112.5h-37.5zm75 131.25v-150c0-113.81 92.438-206.25 206.25-206.25s206.25 92.438 206.25 206.25v150c0 113.81-92.438 206.25-206.25 206.25s-206.25-92.438-206.25-206.25zm150 237c18 4.3125 36.938 6.75 56.25 6.75s38.25-2.4375 56.25-6.75v81.75h-112.5zm168.75 119.25v75h-225v-75zm-468.75 131.25c0-72.375 58.875-131.25 131.25-131.25h75v93.75c0 10.312 8.4375 18.75 18.75 18.75h112.5v95.438c-47.062 7.875-84.188 45-92.062 92.062h-245.44zm283.69 168.75c8.4375-32.25 37.688-56.25 72.562-56.25s64.312 24 72.562 56.25h-145.31zm428.81 0h-245.44c-7.875-47.062-45-84.188-92.062-92.062v-95.438h112.5c10.312 0 18.75-8.4375 18.75-18.75v-93.75h75c72.375 0 131.25 58.875 131.25 131.25z" fill="#fff"/>
 <path d="m665.62 525v-18.75c0-10.312-8.4375-18.75-18.75-18.75h-93.75c-10.312 0-18.75 8.4375-18.75 18.75v18.75c0 30.938 25.312 56.25 56.25 56.25h18.75c30.938 0 56.25-25.312 56.25-56.25zm-93.75 0h56.25c0 10.312-8.4375 18.75-18.75 18.75h-18.75c-10.312 0-18.75-8.4375-18.75-18.75z" fill="#fff"/>
 <path d="m569.25 356.25h61.5c8.4375 32.25 37.5 56.25 72.375 56.25 41.438 0 75-33.562 75-75 0-24.375-11.812-45.75-29.812-59.625-10.875-72.375-74.062-127.88-148.31-127.88s-137.62 54.938-148.31 128.06c-18 13.688-29.812 35.062-29.812 59.438 0 41.438 33.562 75 75 75 34.875 0 63.938-24 72.375-56.25zm133.88 18.75c-20.625 0-37.5-16.875-37.5-37.5s16.875-37.5 37.5-37.5 37.5 16.875 37.5 37.5-16.875 37.5-37.5 37.5zm-103.12-187.5c48.188 0 90 31.5 105.56 75.188-0.9375 0-1.6875-0.1875-2.4375-0.1875-34.875 0-63.938 24-72.375 56.25h-61.5c-8.4375-32.25-37.5-56.25-72.375-56.25-0.9375 0-1.875 0.1875-3 0.375 15.562-44.062 57.75-75.375 106.12-75.375zm-103.12 187.5c-20.625 0-37.5-16.875-37.5-37.5s16.875-37.5 37.5-37.5 37.5 16.875 37.5 37.5-16.875 37.5-37.5 37.5z" fill="#fff"/>
</svg>
