<?xml version="1.0" encoding="UTF-8"?>
<svg width="1200pt" height="1200pt" version="1.1" viewBox="0 0 1200 1200" xmlns="http://www.w3.org/2000/svg">
 <path d="m822.62 315.27c0-138.16-112.4-250.56-250.56-250.56-52.301 0-102.2 16.27-144.2 45.988h188.12c52.176 0 94.621 42.445 94.621 94.621 0 52.258-42.445 94.773-94.621 94.773l-293.98 0.003906c-0.32031 5.0234-0.50391 10.051-0.50391 15.18 0 8.207 0.53125 16.781 1.6602 26.383h497.87c1.0664-9.0703 1.5938-17.785 1.5938-26.387z" fill="#fff"/>
 <path d="m488.82 495.69h-87.68l-15.133 36.762h351.15l-48.234-161.32-236.51 0.003906-10.891 26.461h79.141c8.1406 0 14.738 6.6016 14.738 14.738 0 8.1406-6.6016 14.738-14.738 14.738h-91.273l-16.109 39.145h75.547c8.1367 0 14.738 6.6016 14.738 14.738-0.003906 8.1406-6.6016 14.738-14.742 14.738z" fill="#fff"/>
 <path d="m546.07 943.74c0 81.895-44.875 153.37-111.23 191.55h293.31c-66.348-38.188-111.22-109.66-111.22-191.55s44.875-153.37 111.22-191.55h-293.3c66.348 38.188 111.22 109.66 111.22 191.55z" fill="#fff"/>
 <path d="m832.31 561.93h-75.32c-0.015625 0-0.03125 0.007812-0.050781 0.007812-0.015625 0-0.027344-0.007812-0.042969-0.007812h-392.85c-0.015625 0-0.03125 0.007812-0.058594 0.007812 0 0-0.011719-0.007812-0.023437-0.007812h-41.477l-42.43 165.4c14.527-3.0156 29.566-4.625 44.977-4.625h512.93c80.742 0 151.3 43.656 189.88 108.46l38.68-58.629z" fill="#fff"/>
 <path d="m325.03 995.24c28.398 0 51.5-23.102 51.5-51.5 0-28.391-23.102-51.492-51.5-51.492-28.391 0-51.492 23.102-51.492 51.492 0 28.398 23.102 51.5 51.492 51.5zm0-90.469c21.492 0 38.973 17.48 38.973 38.969s-17.48 38.969-38.973 38.969c-21.488 0-38.969-17.48-38.969-38.969s17.48-38.969 38.969-38.969z" fill="#fff"/>
 <path d="m224.83 973.14c2.1523 7.3477 5.0156 14.309 8.5156 20.684 3.1445 5.7422 2.1289 12.875-2.5039 17.5l-9.0898 9.0898 26.605 26.605 9.0898-9.0898c4.6328-4.6289 11.762-5.6641 17.504-2.5039 6.3633 3.4844 13.316 6.3477 20.676 8.5078 6.2812 1.8398 10.594 7.5977 10.594 14.141v12.91h37.625v-12.91c0-6.543 4.3125-12.305 10.594-14.141 7.3633-2.1602 14.32-5.0234 20.684-8.5078 5.75-3.1523 12.891-2.1094 17.5 2.5039l9.0898 9.0898 26.605-26.605-9.0898-9.0898c-4.6328-4.6289-5.6484-11.762-2.5039-17.5 3.4844-6.3633 6.3477-13.324 8.5078-20.684 1.8359-6.2812 7.5977-10.594 14.141-10.594h12.91v-37.625h-12.91c-6.5508 0-12.312-4.3203-14.148-10.609-2.1367-7.3203-4.9961-14.273-8.5-20.676-3.1445-5.7422-2.125-12.867 2.5039-17.496l9.082-9.082-26.602-26.605-9.0898 9.082c-4.625 4.6133-11.75 5.6406-17.496 2.5117-6.3906-3.4961-13.348-6.3633-20.691-8.5117-6.2812-1.8359-10.594-7.6016-10.594-14.141v-12.91h-37.625v12.91c0 6.543-4.3125 12.301-10.594 14.141-7.332 2.1523-14.301 5.0156-20.684 8.5117-5.75 3.1523-12.867 2.1172-17.496-2.5117l-9.0898-9.082-26.598 26.605 9.082 9.082c4.6289 4.6289 5.6484 11.754 2.5039 17.496-3.5 6.3906-6.3633 13.348-8.5156 20.691-1.8438 6.2812-7.5977 10.594-14.141 10.594h-12.906l-0.007813 37.625h12.91c6.5508 0 12.316 4.3086 14.152 10.594zm100.2-110.38c44.648 0 80.98 36.324 80.98 80.973 0 44.648-36.332 80.977-80.98 80.977s-80.973-36.328-80.973-80.977c0.003906-44.652 36.324-80.973 80.973-80.973z" fill="#fff"/>
 <path d="m334.52 943.74c0 5.2422-4.25 9.4922-9.4922 9.4922s-9.4922-4.25-9.4922-9.4922c0-5.2422 4.25-9.4922 9.4922-9.4922s9.4922 4.25 9.4922 9.4922" fill="#fff"/>
 <path d="m325.03 1135.3c105.63 0 191.56-85.93 191.56-191.55s-85.93-191.55-191.56-191.55c-105.62 0-191.55 85.93-191.55 191.55 0 105.63 85.93 191.55 191.55 191.55zm-124.91-143.27h-17.078c-3.9062 0-7.6602-1.5547-10.422-4.3164-2.7617-2.7656-4.3164-6.5156-4.3164-10.418l0.007813-67.102c0-8.1406 6.6016-14.742 14.738-14.742h17.078c0.76172-1.9922 1.5664-3.9648 2.4258-5.9062l-12.062-12.055c-2.7617-2.7617-4.3164-6.5156-4.3164-10.422s1.5547-7.6562 4.3164-10.418l47.449-47.449c5.7578-5.7578 15.086-5.7578 20.844 0l12.062 12.055c1.9453-0.84766 3.9062-1.6523 5.9023-2.4258v-17.078c0-8.1406 6.6016-14.738 14.738-14.738h67.105c8.1406 0 14.738 6.5977 14.738 14.738v17.078c1.9922 0.76172 3.9648 1.5781 5.9102 2.4258l12.062-12.055c5.7578-5.7578 15.086-5.7578 20.844 0l47.449 47.449c2.7656 2.7656 4.3164 6.5117 4.3164 10.418s-1.5547 7.6602-4.3164 10.422l-12.062 12.055c0.85938 1.9453 1.6641 3.9141 2.4258 5.9062h17.078c8.1367 0 14.738 6.6016 14.738 14.742v67.102c0 8.1367-6.6016 14.738-14.738 14.738h-17.078c-0.76172 2-1.5742 3.9648-2.4258 5.9062l12.055 12.062c5.7578 5.7578 5.7578 15.082 0 20.84l-47.449 47.449c-5.7578 5.7578-15.086 5.7578-20.844 0l-12.062-12.062c-1.9453 0.84766-3.9062 1.6641-5.9102 2.4258v17.078c0 8.1406-6.5977 14.738-14.738 14.738h-67.102c-8.1406 0-14.738-6.6016-14.738-14.738v-17.078c-1.9922-0.76172-3.9648-1.5781-5.9023-2.4258l-12.062 12.062c-5.7578 5.7578-15.086 5.7578-20.844 0l-47.449-47.449c-5.7578-5.7578-5.7578-15.086 0-20.84l12.062-12.062c-0.85156-1.9414-1.6562-3.9141-2.4297-5.9102z" fill="#fff"/>
 <path d="m837.96 892.25c-28.398 0-51.5 23.102-51.5 51.492 0 28.398 23.102 51.5 51.5 51.5 28.391 0 51.492-23.102 51.492-51.5 0-28.391-23.102-51.492-51.492-51.492zm0 90.465c-21.488 0-38.977-17.48-38.977-38.969 0-21.488 17.488-38.969 38.977-38.969 21.492 0 38.973 17.48 38.973 38.969 0 21.484-17.484 38.969-38.973 38.969z" fill="#fff"/>
 <path d="m847.45 943.74c0 5.2461-4.25 9.4961-9.4961 9.4961-5.2422 0-9.4922-4.25-9.4922-9.4961 0-5.2422 4.25-9.4922 9.4922-9.4922 5.2461 0 9.4961 4.25 9.4961 9.4922" fill="#fff"/>
 <path d="m938.16 914.33c-2.1523-7.332-5.0156-14.293-8.5117-20.691-3.1445-5.7422-2.1211-12.867 2.5039-17.496l9.082-9.082-26.598-26.605-9.0898 9.082c-4.6367 4.6133-11.754 5.6406-17.496 2.5117-6.3828-3.4961-13.352-6.3633-20.684-8.5117-6.2852-1.8438-10.594-7.6016-10.594-14.141v-12.91h-37.625v12.91c0 6.543-4.3125 12.305-10.594 14.141-7.3398 2.1523-14.301 5.0156-20.691 8.5117-5.7344 3.1523-12.867 2.1172-17.496-2.5117l-9.0898-9.082-26.598 26.605 9.082 9.082c4.6289 4.6289 5.6484 11.754 2.5039 17.496-3.4961 6.3984-6.3633 13.355-8.5 20.684-1.8438 6.2812-7.6016 10.602-14.148 10.602h-12.91v37.625h12.91c6.5508 0 12.312 4.3203 14.148 10.609 2.1367 7.3281 5 14.285 8.5 20.672 3.1445 5.7422 2.1289 12.875-2.5039 17.5l-9.0898 9.0898 26.605 26.605 9.0898-9.0898c4.6328-4.6289 11.773-5.6641 17.504-2.5039 6.3633 3.4844 13.32 6.3477 20.684 8.5078 6.2852 1.8359 10.594 7.5977 10.594 14.141v12.91h37.625v-12.91c0-6.543 4.3125-12.301 10.594-14.141 7.3555-2.1602 14.32-5.0234 20.688-8.5078 5.7578-3.1523 12.875-2.1094 17.496 2.5039l9.082 9.082 26.605-26.602-9.0898-9.0898c-4.6328-4.6289-5.6484-11.762-2.5039-17.5 3.4961-6.3789 6.3633-13.336 8.5117-20.684 1.8359-6.2812 7.6016-10.594 14.145-10.594h12.902l0.007813-37.625h-12.91c-6.5391 0-12.305-4.3086-14.141-10.594zm-100.2 110.39c-44.648 0-80.977-36.328-80.977-80.977 0-44.648 36.332-80.973 80.977-80.973 44.648 0 80.973 36.324 80.973 80.973-0.003906 44.645-36.324 80.977-80.973 80.977z" fill="#fff"/>
 <path d="m837.96 752.18c-105.62 0-191.55 85.93-191.55 191.55s85.93 191.55 191.55 191.55c105.62 0 191.55-85.93 191.55-191.55s-85.93-191.55-191.55-191.55zm141.98 239.84h-17.07c-0.76953 1.9922-1.5742 3.9648-2.4297 5.9062l12.059 12.066c5.7578 5.7578 5.7578 15.082 0 20.84l-47.449 47.449c-2.7656 2.7656-6.5156 4.3164-10.418 4.3164-3.9102 0-7.6562-1.5547-10.422-4.3164l-12.062-12.062c-1.9375 0.84766-3.9062 1.6641-5.9023 2.4258v17.078c0 8.1406-6.6016 14.738-14.738 14.738h-67.105c-8.1406 0-14.738-6.6016-14.738-14.738v-17.078c-2-0.76172-3.9648-1.5781-5.9062-2.4258l-12.062 12.062c-5.7578 5.7578-15.082 5.7578-20.84 0l-47.449-47.449c-5.7578-5.7578-5.7578-15.086 0-20.84l12.062-12.062c-0.85938-1.9414-1.6641-3.9141-2.4297-5.9062h-17.07c-8.1406 0-14.742-6.6016-14.742-14.738v-67.102c0-8.1406 6.6016-14.742 14.742-14.742h17.078c0.76172-1.9922 1.5664-3.9648 2.4258-5.9062l-12.062-12.055c-2.7656-2.7617-4.3203-6.5156-4.3203-10.422s1.5547-7.6562 4.3203-10.418l47.449-47.449c5.7578-5.7578 15.082-5.7578 20.84 0l12.062 12.055c1.9453-0.84766 3.9141-1.6641 5.9062-2.4258v-17.078c0-8.1406 6.6016-14.738 14.738-14.738h67.105c8.1406 0 14.738 6.5977 14.738 14.738v17.078c1.9922 0.76953 3.957 1.5781 5.9023 2.4258l12.062-12.055c5.7578-5.7578 15.082-5.7578 20.84 0l47.449 47.449c2.7617 2.7656 4.3164 6.5117 4.3164 10.418s-1.5547 7.6602-4.3164 10.422l-12.062 12.055c0.85547 1.9453 1.6641 3.9141 2.4297 5.9062h17.078c3.9102 0 7.6562 1.5547 10.422 4.3203s4.3164 6.5156 4.3164 10.422l-0.007812 67.102c0 8.1367-6.5977 14.734-14.738 14.734z" fill="#fff"/>
 <path d="m428.71 203.18c0 7.6133-6.1719 13.785-13.785 13.785-7.6094 0-13.781-6.1719-13.781-13.785 0-7.6133 6.1719-13.785 13.781-13.785 7.6133 0 13.785 6.1719 13.785 13.785" fill="#fff"/>
 <path d="m603.26 203.18c0 7.6133-6.1719 13.785-13.785 13.785-7.6133 0-13.785-6.1719-13.785-13.785 0-7.6133 6.1719-13.785 13.785-13.785 7.6133 0 13.785 6.1719 13.785 13.785" fill="#fff"/>
 <path d="m615.98 270.61c35.918 0 65.145-29.289 65.145-65.297 0-35.918-29.227-65.145-65.145-65.145h-222.84c-35.094 35.859-58.617 81.453-67.426 130.44zm-26.508-110.69c23.848 0 43.262 19.41 43.262 43.262 0 23.855-19.41 43.266-43.262 43.266-23.855 0-43.27-19.41-43.27-43.266 0.003907-23.852 19.414-43.262 43.27-43.262zm-174.55 0c23.848 0 43.262 19.41 43.262 43.262 0 23.855-19.41 43.266-43.262 43.266-23.848 0-43.262-19.41-43.262-43.266 0.003907-23.852 19.414-43.262 43.262-43.262z" fill="#fff"/>
</svg>
