<?xml version="1.0" encoding="UTF-8"?>
<svg width="1200pt" height="1200pt" version="1.1" viewBox="0 0 1200 1200" xmlns="http://www.w3.org/2000/svg">
 <path d="m975 441.56v-296.81c11.25-6.5625 18.75-18.375 18.75-32.25 0-20.625-16.875-37.5-37.5-37.5s-37.5 16.875-37.5 37.5c0 13.875 7.5 25.875 18.75 32.25v286.5h-51.938c-53.062-89.625-150.38-150-262.12-150h-46.875c-111.75 0-209.06 60.375-262.12 150h-51.938v-286.5c11.25-6.5625 18.75-18.375 18.75-32.25 0-20.625-16.875-37.5-37.5-37.5s-37.5 16.875-37.5 37.5c0 13.875 7.5 25.875 18.75 32.25v296.81c-22.312 12.938-37.5 36.938-37.5 64.688 0 41.438 33.562 75 75 75h9.5625c0 1.5-0.1875 3.1875-0.1875 4.6875v70.312c0 41.438 33.562 75 75 75h506.25c41.438 0 75-33.562 75-75v-70.312c0-1.5-0.1875-3.1875-0.1875-4.6875h9.5625c41.438 0 75-33.562 75-75 0-27.75-15.188-51.562-37.5-64.688zm-253.12 214.69h-243.75c-46.688 0-84.375-37.688-84.375-84.375s37.688-84.375 84.375-84.375h243.75c46.688 0 84.375 37.688 84.375 84.375s-37.688 84.375-84.375 84.375z"/>
 <path d="m600 900c51.75 0 93.75-42 93.75-93.75v-37.5h-187.5v37.5c0 51.75 42 93.75 93.75 93.75z"/>
 <path d="m504.56 532.12c-26.25 0.75-45.188 17.438-45.188 39.75 0 10.312 8.25 18.938 18.75 18.938s18.562-8.25 18.562-18.562c0.75-0.9375 5.25-3 11.625-2.625 5.625 0.375 8.625 2.4375 9 3.375 0.5625 10.312 9.5625 18.188 19.875 17.625s18.188-9.375 17.625-19.875c-1.3125-23.25-22.312-39.188-50.062-38.812z"/>
 <path d="m695.44 532.12c-27.375-0.9375-48.75 15.562-50.062 38.812-0.5625 10.312 7.3125 19.125 17.625 19.688 10.688 1.125 19.312-7.3125 19.875-17.625 0.375-0.75 3.375-2.8125 9-3.1875 6.375-0.5625 10.875 1.6875 11.438 2.0625 0 10.5 8.4375 18.938 18.75 18.938s18.75-8.4375 18.75-18.75c0-22.312-19.125-39-45.188-39.75z"/>
 <path d="m600 993.75c-51.75 0-93.75 42-93.75 93.75v37.5h187.5v-37.5c0-51.75-42-93.75-93.75-93.75z"/>
 <path d="m581.25 957.75v-21.75c-63.562-9.1875-112.5-63.75-112.5-129.75h-138.56c-51.562 0-87.75 50.812-70.875 99.375l75.562 219.38h133.88v-37.5c0-66 48.938-120.56 112.5-129.75z"/>
 <path d="m869.81 806.25h-138.56c0 66-48.938 120.56-112.5 129.75v21.75c63.562 9.1875 112.5 63.75 112.5 129.75v37.5h133.88l75.562-219.38c16.875-48.75-19.312-99.375-70.875-99.375z"/>
</svg>
