<?xml version="1.0" encoding="UTF-8"?>
<svg width="1200pt" height="1200pt" version="1.1" viewBox="0 0 1200 1200" xmlns="http://www.w3.org/2000/svg">
 <path d="m270.04 885.12c0-8.6719-7.0508-15.723-15.711-15.723-35.352 0-65.215-20.418-65.215-44.582 0-24.164 29.863-44.57 65.215-44.57 35.34 0 65.203 20.406 65.203 44.57 0 8.6719 7.0508 15.723 15.723 15.723 8.6562 0 15.707-7.0508 15.707-15.723 0-42.617-42.441-76-96.633-76-2.7422 0-5.4453 0.16016-8.1328 0.33594-3.7852 0.1875-7.6797-1.1758-10.449-3.8945-2.7695-2.7148-4.2695-6.4883-4.0938-10.371 2.7227-62.504 18.227-178.05 90.145-257.85v-44.18c-6.8125 5.8906-13.164 11.965-19.148 18.312-92.711 98.426-102.92 244.59-103 302.88-0.015626 4.6836-2.4062 9.0312-6.3555 11.547-22.629 14.359-35.605 35.941-35.605 59.223 0 42.629 42.457 76.012 96.645 76.012 8.6562 0 15.707-7.0508 15.707-15.711z"/>
 <path d="m401.01 947.91c0 29.676 26.625 53.816 59.344 53.816h29.957v-107.63h-29.957c-32.719 0.003906-59.344 24.141-59.344 53.816z"/>
 <path d="m682.29 1040.5v-197.82c0-45.375-36.914-82.277-82.289-82.277s-82.289 36.902-82.289 82.277v197.82c0 45.371 36.914 82.277 82.289 82.277 45.375-0.003907 82.289-36.906 82.289-82.277z"/>
 <path d="m798.99 947.91c0-29.68-26.625-53.816-59.344-53.816h-29.957v107.63h29.957c32.719 0 59.344-24.137 59.344-53.816z"/>
 <path d="m399.94 694.12 69.66 172.58h20.711v-24.031c0-60.48 49.215-109.68 109.69-109.68 60.48 0 109.69 49.199 109.69 109.68v24.031h20.711l69.66-172.58z"/>
 <path d="m1006.7 765.59c-3.9492-2.5156-6.3438-6.8633-6.3555-11.547-0.078125-58.285-10.289-204.45-103-302.88-5.9844-6.3477-12.336-12.422-19.148-18.312v44.18c71.918 79.801 87.422 195.34 90.145 257.85 0.17188 3.8828-1.3242 7.6562-4.0938 10.371-2.7695 2.7148-6.5703 4.0664-10.449 3.8945-2.6914-0.17578-5.3906-0.33594-8.1328-0.33594-54.191 0-96.633 33.387-96.633 76 0 8.6719 7.0508 15.723 15.707 15.723 8.6719 0 15.723-7.0508 15.723-15.723 0-24.164 29.863-44.57 65.203-44.57 35.352 0 65.215 20.406 65.215 44.57s-29.863 44.582-65.215 44.582c-8.6562 0-15.707 7.0508-15.707 15.723 0 8.6562 7.0508 15.707 15.707 15.707 54.191 0 96.645-33.383 96.645-76.012-0.003906-23.277-12.984-44.859-35.609-59.219z"/>
 <path d="m850.8 336.26h-501.6v330.46h501.6zm-264.5 43.539c0-7.5742 6.1289-13.703 13.703-13.703s13.703 6.1289 13.703 13.703v106.98c0 7.5742-6.1289 13.703-13.703 13.703s-13.703-6.1289-13.703-13.703zm13.703 263.22c-81.648 0-148.08-66.418-148.08-148.07 0-46.832 22.629-91.43 60.508-119.3 2.918-2.1406 6.582-3.0625 10.184-2.5 3.5977 0.54687 6.8242 2.5 8.9805 5.418l34.855 47.406c4.4805 6.1016 3.1719 14.68-2.918 19.16-16.125 11.855-25.371 30.012-25.371 49.816 0 34.094 27.738 61.832 61.844 61.832s61.844-27.738 61.844-61.832c0-19.801-9.2461-37.961-25.371-49.816-6.0898-4.4805-7.3984-13.059-2.918-19.16l34.855-47.406c2.1562-2.918 5.3789-4.8711 8.9805-5.418 3.5859-0.5625 7.25 0.35937 10.184 2.5 37.879 27.871 60.508 72.469 60.508 119.3 0 81.648-66.438 148.07-148.08 148.07z"/>
 <path d="m663.16 432c16.727 16.645 26.094 38.949 26.094 62.953 0 49.199-40.035 89.234-89.246 89.234-49.215 0-89.246-40.035-89.246-89.234 0-24.004 9.3672-46.309 26.094-62.953l-18.758-25.516c-24.484 22.719-38.762 54.898-38.762 88.473 0 66.539 54.137 120.66 120.68 120.66 66.539 0 120.68-54.125 120.68-120.66 0-33.57-14.277-65.754-38.762-88.473z"/>
 <path d="m529.83 229.89h140.33c16.539 0 29.984-13.449 29.984-29.984 0-16.539-13.445-29.984-29.984-29.984l-140.33-0.003907c-16.539 0-29.984 13.445-29.984 29.984 0 16.539 13.445 29.988 29.984 29.988z"/>
 <path d="m803.18 308.86c-12.859-130.95-99.875-231.61-203.18-231.61-103.3 0-190.32 100.66-203.18 231.61zm-273.34-166.34h140.33c31.645 0 57.391 25.742 57.391 57.391 0 31.645-25.742 57.387-57.391 57.387h-140.33c-31.645 0-57.391-25.742-57.391-57.387 0.003906-31.648 25.746-57.391 57.391-57.391z"/>
</svg>
