<?xml version="1.0" encoding="UTF-8"?>
<svg width="1200pt" height="1200pt" version="1.1" viewBox="0 0 1200 1200" xmlns="http://www.w3.org/2000/svg">
 <path d="m187.23 416.26c-7.3711 18.555-6.7461 39.562 1.7188 57.625 7.4219 15.906 14.895 31.75 22.355 47.57l13.203 28.047v271.02c0 29.891 24.309 54.207 54.191 54.207 29.805 0 54.062-24.316 54.062-54.207l0.003907-147.7c6.9609-0.44531 13.836-1.6719 20.508-4.1953 11.559-4.4023 23.223-8.3906 34.938-12.152 20.215 49.027 56.543 88.301 101.5 112.52l-50.832 137.3h-84.266c-69.805 0-126.59 56.789-126.59 126.59 0 69.797 56.785 126.59 126.59 126.59h490.78c69.805 0 126.59-56.789 126.59-126.59 0-69.797-56.785-126.59-126.59-126.59h-84.266l-50.832-137.29c44.957-24.223 81.285-63.496 101.5-112.52 11.723 3.7656 23.398 7.7578 34.965 12.164 6.6523 2.5195 13.508 3.875 20.48 4.3164v147.57c0 29.891 24.258 54.207 54.062 54.207 29.883 0 54.191-24.316 54.191-54.207l0.003906-271.02 13.203-28.051c7.4609-15.82 14.934-31.668 22.344-47.551 8.4766-18.078 9.1016-39.09 1.7305-57.645-7.3164-18.445-21.445-32.59-39.727-39.816-56.754-22.566-115.86-39.746-175.82-51.695 8.5742-22.926 13.492-47.625 13.492-73.504 0-116.19-94.531-210.71-210.71-210.71s-210.71 94.523-210.71 210.71c0 25.879 4.918 50.578 13.492 73.5-59.965 11.949-119.06 29.137-175.8 51.688-18.309 7.2383-32.438 21.387-39.754 39.828zm118.87 404.27c0 15.184-12.293 27.539-27.395 27.539-15.184 0-27.527-12.355-27.527-27.539v-214.38l11.965 25.418c8.5664 18.297 24.188 31.859 42.957 38.008zm539.3 112.43c55.09 0 99.922 44.824 99.922 99.922 0 55.098-44.832 99.922-99.922 99.922h-490.78c-55.09 0-99.922-44.824-99.922-99.922 0-55.098 44.832-99.922 99.922-99.922zm-112.69-26.664h-265.4l46.648-126c25.609 10.082 53.262 15.641 81.883 15.641h8.332c28.621 0 56.273-5.5586 81.883-15.641zm-128.53-137.03h-8.332c-79.566 0-151.02-47.922-182.05-120.57 121.88-34.035 250.55-34.039 372.43-0.003906-31.027 72.648-102.48 120.57-182.05 120.57zm344.66 51.258c0 15.184-12.344 27.539-27.527 27.539-15.105 0-27.395-12.355-27.395-27.539v-150.95c18.754-6.1367 34.383-19.699 42.941-37.973l11.98-25.449zm-348.83-753.33c101.48 0 184.05 82.566 184.05 184.05 0 101.48-82.566 184.05-184.05 184.05s-184.05-82.566-184.05-184.05c0-101.48 82.566-184.05 184.05-184.05zm-186.18 282.48c35.414 66.703 105.54 112.28 186.18 112.28s150.76-45.578 186.17-112.28c60.395 11.648 119.92 28.844 177.05 51.559 11.379 4.5 20.184 13.332 24.766 24.871 4.6602 11.746 4.2695 25.047-1.1055 36.504-7.4102 15.867-14.871 31.68-22.316 47.473l-51.848 110.18c-6.4844 13.828-19.258 23.465-34.141 25.773-7.6562 1.1602-15.195 0.37109-22.344-2.332-165.23-62.949-347.21-62.957-512.45-0.007813-7.1484 2.7031-14.715 3.4961-22.316 2.3438-14.934-2.3164-27.707-11.953-34.207-25.82l-51.836-110.14c-7.4492-15.793-14.91-31.609-22.332-47.492-5.3633-11.438-5.7539-24.738-1.0938-36.484 4.582-11.535 13.387-20.371 24.793-24.883 57.105-22.695 116.64-39.898 177.03-51.543z"/>
 <path d="m600 384.32c73.387 0 133.09-59.699 133.09-133.08 0-73.383-59.699-133.08-133.09-133.08s-133.09 59.699-133.09 133.08c0 73.379 59.699 133.08 133.09 133.08zm0-239.49c58.684 0 106.42 47.734 106.42 106.41 0 58.676-47.734 106.41-106.42 106.41s-106.42-47.734-106.42-106.41c0-58.676 47.734-106.41 106.42-106.41z"/>
 <path d="m583.39 209.7h-72.098v72.082h72.098zm-26.668 45.418h-18.762v-18.75h18.762z"/>
 <path d="m688.71 209.7h-72.098v72.082h72.098zm-26.668 45.418h-18.762v-18.75h18.762z"/>
 <path d="m290.26 1032.9c0 34.656 28.191 62.844 62.84 62.844h493.8c34.648 0 62.84-28.191 62.84-62.844 0-34.656-28.191-62.852-62.84-62.852h-493.8c-34.648 0-62.836 28.199-62.836 62.852zm556.64-36.184c19.949 0 36.172 16.23 36.172 36.184 0 19.949-16.223 36.18-36.172 36.18-19.949 0-36.184-16.23-36.184-36.18-0.003906-19.953 16.234-36.184 36.184-36.184zm-51.223 0c-4.7969 6.7695-8.3203 14.477-10.137 22.852h-9.9805v26.668h9.9805c1.8203 8.3711 5.3398 16.078 10.133 22.844h-391.35c4.7969-6.7695 8.3164-14.473 10.133-22.844h9.9805v-26.668h-9.9805c-1.8203-8.375-5.3398-16.082-10.137-22.852zm-406.39 36.184c0 19.949-16.238 36.18-36.184 36.18-19.949 0-36.172-16.23-36.172-36.18 0-19.953 16.223-36.184 36.172-36.184 19.945 0 36.184 16.23 36.184 36.184z"/>
 <path d="m678.04 1019.6h35.77v26.668h-35.77z"/>
 <path d="m606.51 1019.6h35.77v26.668h-35.77z"/>
 <path d="m534.97 1019.6h35.77v26.668h-35.77z"/>
 <path d="m463.45 1019.6h35.77v26.668h-35.77z"/>
 <path d="m749.57 1019.6h6.4844v26.668h-6.4844z"/>
</svg>
