<?xml version="1.0" encoding="UTF-8"?>
<svg width="1200pt" height="1200pt" version="1.1" viewBox="0 0 1200 1200" xmlns="http://www.w3.org/2000/svg">
 <path d="m600 394.31c38.812-56.812 104.25-94.312 178.12-94.312 37.312 0 72.375 9.5625 103.12 26.25v-63.75c0-62.062-50.438-112.5-112.5-112.5h-337.5c-62.062 0-112.5 50.438-112.5 112.5v63.75c30.75-16.688 65.812-26.25 103.12-26.25 73.875 0 139.31 37.5 178.12 94.312z" fill="#fff"/>
 <path d="m178.12 806.25h225v-56.25c0-6.9375 1.875-13.5 5.25-19.125-112.69-7.125-202.12-100.88-202.12-215.25 0-3.1875 0-6.1875 0.1875-9.375h9.1875v-361.5c11.25-6.5625 18.75-18.375 18.75-32.25 0-20.625-16.875-37.5-37.5-37.5s-37.5 16.875-37.5 37.5c0 13.875 7.5 25.875 18.75 32.25z" fill="#fff"/>
 <path d="m600 636.94c-22.5 32.812-53.812 59.25-90.562 75.562h181.12c-36.75-16.312-68.062-42.75-90.562-75.562z" fill="#fff"/>
 <path d="m1040.6 112.5c0-20.625-16.875-37.5-37.5-37.5s-37.5 16.875-37.5 37.5c0 13.875 7.5 25.875 18.75 32.25v361.5h9.1875c0.1875 3.1875 0.1875 6.1875 0.1875 9.375 0 114.38-89.438 208.12-202.12 215.25 3.375 5.625 5.25 12.188 5.25 19.125v56.25h225v-661.5c11.25-6.5625 18.75-18.375 18.75-32.25z" fill="#fff"/>
 <path d="m421.88 693.75c98.438 0 178.12-79.688 178.12-178.12s-79.688-178.12-178.12-178.12-178.12 79.688-178.12 178.12 79.688 178.12 178.12 178.12zm0-281.25c56.812 0 103.12 46.312 103.12 103.12s-46.312 103.12-103.12 103.12-103.12-46.312-103.12-103.12 46.312-103.12 103.12-103.12z" fill="#fff"/>
 <path d="m778.12 693.75c98.438 0 178.12-79.688 178.12-178.12s-79.688-178.12-178.12-178.12-178.12 79.688-178.12 178.12 79.688 178.12 178.12 178.12zm0-281.25c56.812 0 103.12 46.312 103.12 103.12s-46.312 103.12-103.12 103.12-103.12-46.312-103.12-103.12 46.312-103.12 103.12-103.12z" fill="#fff"/>
 <path d="m600 1050c-45.188 0-83.062-32.25-91.875-75h-264.38v150h712.5v-150h-264.38c-8.625 42.75-46.5 75-91.875 75z" fill="#fff"/>
 <path d="m600 1012.5c31.125 0 56.25-25.125 56.25-56.25v-56.25h-112.5v56.25c0 31.125 25.125 56.25 56.25 56.25z" fill="#fff"/>
 <path d="m440.62 750h318.75v112.5h-318.75z" fill="#fff"/>
</svg>
