<?xml version="1.0" encoding="UTF-8"?>
<svg width="1200pt" height="1200pt" version="1.1" viewBox="0 0 1200 1200" xmlns="http://www.w3.org/2000/svg">
 <path d="m938.81 968.44c-9-39.375-38.25-69.562-75-81.562v1.6875c-20.812 104.44-113.25 180.19-219.75 180.19h-87.75c-106.5 0-198.94-75.75-219.75-180.19v-1.6875c-36.938 12-66 42.188-75 81.562l-36.188 156.56h750l-36.188-156.56z" fill="#fff"/>
 <path d="m609.38 75h-18.75c-105.56 0-191.81 83.062-196.69 187.5h412.12c-4.875-104.44-91.125-187.5-196.69-187.5z" fill="#fff"/>
 <path d="m600 825c-19.312 0-38.062-2.25-56.25-6.1875v62.438h-170.62c17.438 87.188 93.938 150 183 150h87.75c88.875 0 165.56-62.812 183-150h-170.62v-62.438c-18.188 3.9375-36.938 6.1875-56.25 6.1875z" fill="#fff"/>
 <path d="m375 562.5c0 124.31 100.69 225 225 225s225-100.69 225-225v-56.25h75v-150h-75v-56.25h-450v56.25h-75v150h75zm328.12-168.75c31.125 0 56.25 25.125 56.25 56.25s-25.125 56.25-56.25 56.25-56.25-25.125-56.25-56.25 25.125-56.25 56.25-56.25zm-56.25 243.75c0 20.625-16.875 37.5-37.5 37.5h-18.75c-20.625 0-37.5-16.875-37.5-37.5v-18.75h93.75zm-150-243.75c31.125 0 56.25 25.125 56.25 56.25s-25.125 56.25-56.25 56.25-56.25-25.125-56.25-56.25 25.125-56.25 56.25-56.25z" fill="#fff"/>
</svg>
