<?xml version="1.0" encoding="UTF-8"?>
<svg width="1200pt" height="1200pt" version="1.1" viewBox="0 0 1200 1200" xmlns="http://www.w3.org/2000/svg">
 <path d="m728.75 311.51-43.359-91.863c-6.25-13.23-19.727-21.777-34.363-21.777h-102.06c-14.637 0-28.113 8.5469-34.363 21.777l-43.355 91.855c-5.5859 11.828-4.7539 25.5 2.2539 36.555 7.0039 11.062 19.012 17.668 32.109 17.668h188.78c13.098 0 25.105-6.6094 32.109-17.668 7.0039-11.055 7.8359-24.727 2.25-36.547zm-24.777 22.285c-1.0039 1.582-3.9453 5.2656-9.582 5.2656h-188.78c-5.6367 0-8.582-3.6836-9.582-5.2656-1.0039-1.582-3.0742-5.8125-0.66406-10.906l43.359-91.863c1.8633-3.9453 5.8867-6.4922 10.246-6.4922h102.06c4.3633 0 8.3867 2.5469 10.246 6.4922l43.359 91.867c2.4062 5.0859 0.33594 9.3203-0.66406 10.902z" fill="#fff"/>
 <path d="m536.71 275.12h37.5v26.668h-37.5z" fill="#fff"/>
 <path d="m625.79 275.12h37.5v26.668h-37.5z" fill="#fff"/>
 <path d="m1079.1 824.54v-166.41c0-85.77-27.148-153.54-80.691-201.41-32.031-28.629-72.68-48.711-120.74-59.992l-135.86-287.71h-283.59l-135.86 287.71c-48.059 11.281-88.707 31.363-120.74 59.992-53.543 47.879-80.691 115.64-80.691 201.41v166.41l-34.555-0.003906-67.043 115.98 67.043 115.97h145.7l-46.629-102.57h-39.883l-7.7852-13.406 7.7852-13.406h53.449l29.207 50.594 88.828-51.281-58.828-101.88h-34.727v-166.41c0-55.301 15.625-97.277 46.406-124.75 18.48-16.422 42.848-28.152 71.969-35.508l114.28 478.58h24.867c11.176 66.09 60.594 114.54 119 114.54s107.82-48.453 119-114.54h24.867l114.36-478.56c29.082 7.3594 53.422 19.078 71.863 35.469 30.809 27.492 46.434 69.473 46.434 124.77v166.41h-34.727l-58.828 101.88 88.828 51.281 29.207-50.594h53.449l7.7852 13.406-7.7852 13.406h-39.883l-46.629 102.57h145.7l67.043-115.97-67.043-115.98zm-826.94-311.08c-36.719 32.766-55.34 81.445-55.34 144.67v193.08h46.004l37.785 65.449-42.629 24.617-23.582-40.828h-84.203l-23.254 40.07 23.254 40.07h38.086l22.383 49.23-88.906 0.003907-51.629-89.305 51.629-89.309h45.832v-193.08c0-77.852 24.152-138.93 71.809-181.53 27.715-24.785 62.953-42.5 104.75-52.918l11.531 48.301c-33.453 8.4062-61.723 22.102-83.52 41.48zm347.85 550.86c-43.977 0-81.484-36.891-91.84-87.871h183.68c-10.355 50.98-47.863 87.871-91.84 87.871zm122.82-114.54h-245.65l-129.82-543.58 127.75-270.53h249.79l127.75 270.53zm375.43 80.039h-88.906l22.383-49.23h38.086l23.254-40.07-23.254-40.07h-84.207l-23.582 40.828-42.629-24.617 37.785-65.449h46.004v-193.08c0-63.223-18.621-111.9-55.363-144.69-21.758-19.348-50-33.035-83.426-41.441l11.484-48.312c41.785 10.418 77.016 28.129 104.73 52.91 47.656 42.598 71.809 103.68 71.809 181.53v193.08h45.832l51.629 89.309z" fill="#fff"/>
</svg>
