<?xml version="1.0" encoding="UTF-8"?>
<svg width="1200pt" height="1200pt" version="1.1" viewBox="0 0 1200 1200" xmlns="http://www.w3.org/2000/svg">
 <path d="m130.11 865.58c1.6523 33.309 28.973 59.402 62.176 59.402 0.78125 0 1.6523-0.066407 2.668-0.17578 16.641-0.70313 31.98-7.832 43.203-20.086 11.211-12.234 16.992-28.133 16.289-44.785-3.0508-69.27 5.1836-129.22 24.184-178.73 18.621 8.3398 38.883 12.879 59.539 12.879h18.809c23.738 265.84 122.87 450.46 243.03 450.46s219.29-184.61 243.03-450.46h18.809c20.844 0 41.25-4.6289 59.613-12.898 16.379 42.539 24.75 93.031 24.75 150.51 0 9.0742-0.16797 18.465-0.63672 28.254-0.70312 16.633 5.0781 32.531 16.289 44.766 11.223 12.254 26.562 19.387 43.332 20.098l2.5391 0.16406c33.203 0 60.52-26.094 62.176-59.473 5.2383-117.36-16.094-215.89-63.117-293.26 1.4688-8.3516 2.3867-16.875 2.3867-25.5 0-35.344-12.734-69.328-35.977-96.27l-7.332-7.9297c-27.93-27.93-64.871-43.309-104.02-43.309h-49.879c5.6797-24.262 8.6914-48.969 8.6914-73.723 0.003906-148.91-98.98-270.06-220.65-270.06s-220.65 121.15-220.65 270.07c0 24.758 3.0117 49.465 8.6914 73.723h-49.879c-40.703 0-79.988 17.227-107.8 47.266-25.488 27.531-39.527 63.129-39.527 100.24 0 8.668 0.92188 17.129 2.3789 25.352-47.016 77.371-68.344 175.96-63.105 293.48zm469.89 252.3c-102.07 0-193.94-181.2-216.25-423.79h432.5c-22.309 242.59-114.18 423.79-216.25 423.79zm443.25-253.63c-0.94922 19.102-16.551 34.062-35.105 34.062l-1.9805-0.14844c-9.5-0.40234-18.25-4.4727-24.656-11.457-6.4062-6.9922-9.7148-16.094-9.3086-25.539 0.49609-10.156 0.66406-19.973 0.66406-29.465 0-62.375-9.4883-117.29-27.98-163.68 22.324-15.344 40.035-36.332 51.121-60.637 35.809 69.41 51.77 155.6 47.246 256.86zm-637.24-538.73c0-134.21 87.02-243.4 193.98-243.4s193.98 109.19 193.98 243.4c0 24.777-3.3203 49.512-9.5195 73.723l-368.93 0.003906c-6.1992-24.211-9.5195-48.945-9.5195-73.727zm-156.09 139.1c22.785-24.602 54.949-38.711 88.242-38.711h523.67c32.031 0 62.277 12.605 85.168 35.496l3.0742 3.2148c20.91 22.59 32.422 51.758 32.422 82.129 0 8.6914-0.85938 16.941-2.6289 25.203-7.043 32.812-27.852 61.516-56.262 78.312l-1.3438 0.75-11.172 5.5859c-15.371 6.9883-32.133 10.82-49.258 10.82h-523.67c-21.133 0-41.836-5.5664-60.871-16.66-9.0508-5.4219-17.215-11.766-24.297-18.836-16.613-16.602-27.969-37.402-32.879-60.184-1.7305-7.9727-2.6172-16.383-2.6172-24.992 0-30.371 11.512-59.535 32.422-82.129zm-45.742 142.27c7.3125 16.16 17.195 31.133 29.961 43.895 6.3125 6.3047 13.512 11.91 21.086 17.137-21.383 53.695-30.703 118.51-27.426 193.16 0.40234 9.5234-2.9023 18.625-9.3086 25.617-6.4102 6.9844-15.16 11.055-24.105 11.445-0.78125 0-1.6523 0.066406-2.1094 0.16406-18.984 0-34.582-14.961-35.535-33.992-4.5391-101.58 11.492-187.94 47.438-257.43z" fill="#fff"/>
 <path d="m699.43 959.46-24.246-11.082c-16.59 36.262-35.949 64.871-57.578 85.027l18.176 19.504c24.195-22.543 45.617-53.988 63.648-93.449z" fill="#fff"/>
 <path d="m733.79 855.12-26.199-5.0273c-0.027344 0.18359-3.6328 18.68-11.848 44.582l25.418 8.0586c8.7344-27.508 12.473-46.805 12.629-47.613z" fill="#fff"/>
 <path d="m662.11 178.42h-124.22c-44.855 0-81.34 36.484-81.34 81.336 0 44.852 36.484 81.336 81.34 81.336h124.22c44.855 0 81.34-36.484 81.34-81.336 0-44.852-36.484-81.336-81.34-81.336zm0 136h-124.22c-30.145 0-54.676-24.523-54.676-54.668 0-30.145 24.531-54.668 54.676-54.668h124.22c30.145 0 54.676 24.523 54.676 54.668 0 30.141-24.531 54.668-54.676 54.668z" fill="#fff"/>
 <path d="m532.93 246.42h134.14v26.668h-134.14z" fill="#fff"/>
</svg>
