<?xml version="1.0" encoding="UTF-8"?>
<svg width="1200pt" height="1200pt" version="1.1" viewBox="0 0 1200 1200" xmlns="http://www.w3.org/2000/svg">
 <path d="m800 920v-120h-80.004v120h-240v-120h-79.992v120h-280.01v160h79.992v-80.004h800v80.004h80.004v-160z" fill="#fff"/>
 <path d="m420.53 378.52-58.715-141.79c11.195-12.406 18.18-28.668 18.18-46.703 0-38.676-31.297-70.02-69.984-70.02-38.652 0-70.008 31.344-70.008 70.02 0 37.402 29.461 67.68 66.371 69.613l58.727 141.85z" fill="#fff"/>
 <path d="m960 190.02c0-38.676-31.367-70.02-69.996-70.02-38.676 0-70.008 31.344-70.008 70.02 0 18 6.9961 34.273 18.215 46.691l-58.754 141.8 55.477 22.969 58.754-141.85c36.863-1.9336 66.312-32.207 66.312-69.613z" fill="#fff"/>
 <path d="m780 560.03c0 33.137-26.863 60-60 60s-60-26.863-60-60c0-33.137 26.863-60 60-60s60 26.863 60 60" fill="#fff"/>
 <path d="m540 560.03c0 33.137-26.863 60-60 60s-60-26.863-60-60c0-33.137 26.863-60 60-60s60 26.863 60 60" fill="#fff"/>
 <path d="m960 520h-20.941c-49.453-139.73-182.34-240-339.06-240-156.68 0-289.62 100.27-339.09 240h-20.941c-44.184 0-79.992 35.82-79.992 80.004l0.023437 80.004c0 44.184 35.809 79.992 79.992 79.992l0.003906 80.004h720v-80.004c44.148 0 80.004-35.809 80.004-79.992v-80.004c0-44.184-35.82-80.004-80.004-80.004zm-80.004 240h-160l-39.996-60h-160l-40.008 60h-160.01v-120c0-154.38 125.62-280 280.01-280 154.37 0 280 125.62 280 280z" fill="#fff"/>
</svg>
