<?xml version="1.0" encoding="UTF-8"?>
<svg width="1200pt" height="1200pt" version="1.1" viewBox="0 0 1200 1200" xmlns="http://www.w3.org/2000/svg">
 <path d="m1012.5 487.5h-13.125c9.2617-33.75 17.867-59.664 25.086-81 15.121-35.246 22.168-73.43 20.625-111.75-11.098-138.13-200.51-251.01-426.34-256.97v-0.28125h-37.5v0.28125c-225.82 5.9609-415.24 118.84-426.38 256.97-1.543 38.32 5.5039 76.504 20.625 111.75 7.2188 21.336 15.75 47.25 25.125 81h-13.125c-19.891 0-38.969 7.9023-53.031 21.969-14.066 14.062-21.969 33.141-21.969 53.031v37.5c0.03125 26.914 9.7148 52.926 27.285 73.312 17.574 20.387 41.875 33.797 68.488 37.801 13.219 108.62 94.988 190.84 145.52 231.94 18.66 15.078 38.27 28.945 58.707 41.512v177.94h37.5v-156.66c40.785 22.129 85.262 36.629 131.25 42.789v113.87h37.5v-37.5h104.74l26.512 26.512v10.988h37.5v-18.75c0-4.9727-1.9766-9.7422-5.4922-13.258l-24.246-24.242 24.242-24.242h0.003906c3.5156-3.5156 5.4922-8.2852 5.4922-13.258v-84.242c20.445-12.574 40.059-26.445 58.727-41.531 50.324-40.875 131.57-122.51 145.31-230.48h20.961c19.891 0 38.969-7.9023 53.031-21.969 14.066-14.062 21.969-33.141 21.969-53.031v-75c0-19.891-7.9023-38.969-21.969-53.031-14.062-14.066-33.141-21.969-53.031-21.969zm-782.85-186.75c5.1367-63.977 96.055-148.01 254.38-177.75l6.9375 36.863c-147.09 27.637-220.57 102.19-223.93 143.89-1.3125 16.125 1.4805 26.363 15.148 66.992l-35.625 11.945c-14.062-42.074-18.844-57.863-16.914-81.938zm351.6 524.25v18.02c-36.305-2.0195-71.438-13.555-101.87-33.449l-21.262 30.863-0.003906-0.003906c36.711 24.172 79.234 38.047 123.13 40.184v130.74c-59.305-6.8828-138.41-44.289-203.79-97.406-49.934-40.594-133.71-124.82-133.71-232.76v-159.38c0.58203 0 1.1641-0.44922 1.7422-0.60156 115.27-20.848 227.61-55.469 334.61-103.12 0.39453-0.14844 0.76953-0.14844 1.1445-0.32031zm37.5-616.5c9.6758-3.8633 19.367-7.7422 28.688-11.438l8.25-50.062c0.71484-4.4062 2.9766-8.4102 6.3789-11.297s7.7227-4.4648 12.184-4.4531h76.5c4.4609-0.011719 8.7812 1.5664 12.184 4.4531s5.6641 6.8906 6.3789 11.297l8.25 50.062 3.5625 1.5c14.062 5.625 22.875 9.375 37.875 15.562l41.25-29.438c3.6016-2.6055 8.0078-3.8438 12.438-3.5s8.5938 2.2461 11.75 5.375l54 54c3.1289 3.1562 5.0312 7.3203 5.375 11.75s-0.89453 8.8359-3.5 12.438l-29.438 41.25c6.1875 14.812 9.75 23.438 15.375 37.125l1.6875 4.3125 50.062 8.25c4.4062 0.71484 8.4102 2.9766 11.297 6.3789s4.4648 7.7227 4.4531 12.184v28.312c-30.945 5.7383-62.395 8.3125-93.863 7.6875-0.63281-49.305-20.648-96.375-55.715-131.04-35.062-34.664-82.363-54.137-131.67-54.207-32.965 0.007812-65.328 8.8164-93.75 25.52zm243.54 199.82c-12.039-1.1445-24.094-2.4922-36.113-4.5547-0.54297 0-1.0859-0.26172-1.6484-0.35547v-0.003906c-2.2812-28.152-15.074-54.418-35.828-73.574s-47.957-29.809-76.203-29.832c-21.434 0.15234-42.359 6.5586-60.207 18.43-9.1094-9.0039-17.625-18.586-25.5-28.688 25.066-17.723 55.008-27.242 85.707-27.242 39.027 0.0625 76.492 15.32 104.46 42.543 27.965 27.223 44.227 64.266 45.336 103.28zm-243.54 435.43h37.5v37.5h-37.5zm131.25 217.24-26.512 26.512h-104.74v-38.867c45.992-6.1719 90.469-20.688 131.25-42.828zm206.25-379.8c0 168.92-215.3 315.7-337.5 330.15v-92.586h131.25c4.9727 0 9.7422-1.9766 13.258-5.4922 3.5156-3.5156 5.4922-8.2852 5.4922-13.258v-75c0-4.9727-1.9766-9.7422-5.4922-13.258-3.5156-3.5156-8.2852-5.4922-13.258-5.4922h-131.25v-187.5h39c6.0273 41.973 31.988 78.438 69.68 97.871 37.688 19.434 82.453 19.434 120.14 0 37.691-19.434 63.652-55.898 69.68-97.871h39zm-262.5 200.06v-37.5h37.5v37.5zm0-281.25c0-24.863 9.8789-48.711 27.457-66.293 17.582-17.578 41.43-27.457 66.293-27.457s48.711 9.8789 66.293 27.457c17.578 17.582 27.457 41.43 27.457 66.293s-9.8789 48.711-27.457 66.293c-17.582 17.578-41.43 27.457-66.293 27.457-24.855-0.03125-48.684-9.918-66.258-27.492-17.574-17.574-27.461-41.402-27.492-66.258zm262.5-18.75h-39c-6.0273-41.973-31.988-78.438-69.68-97.871-37.688-19.434-82.453-19.434-120.14 0-37.691 19.434-63.652 55.898-69.68 97.871h-39v-243.26c52.883 53.957 120.97 90.496 195.17 104.74 46.965 9.0547 95.172 9.6133 142.33 1.6484z" fill="#fff"/>
 <path d="m468.75 600c0 31.066-25.184 56.25-56.25 56.25s-56.25-25.184-56.25-56.25 25.184-56.25 56.25-56.25 56.25 25.184 56.25 56.25" fill="#fff"/>
 <path d="m843.75 600c0-14.918-5.9258-29.227-16.477-39.773-10.547-10.551-24.855-16.477-39.773-16.477s-29.227 5.9258-39.773 16.477c-10.551 10.547-16.477 24.855-16.477 39.773s5.9258 29.227 16.477 39.773c10.547 10.551 24.855 16.477 39.773 16.477s29.227-5.9258 39.773-16.477c10.551-10.547 16.477-24.855 16.477-39.773zm-75 0c0-4.9727 1.9766-9.7422 5.4922-13.258 3.5156-3.5156 8.2852-5.4922 13.258-5.4922s9.7422 1.9766 13.258 5.4922c3.5156 3.5156 5.4922 8.2852 5.4922 13.258s-1.9766 9.7422-5.4922 13.258c-3.5156 3.5156-8.2852 5.4922-13.258 5.4922s-9.7422-1.9766-13.258-5.4922c-3.5156-3.5156-5.4922-8.2852-5.4922-13.258z" fill="#fff"/>
</svg>
