<?xml version="1.0" encoding="UTF-8"?>
<svg width="1200pt" height="1200pt" version="1.1" viewBox="0 0 1200 1200" xmlns="http://www.w3.org/2000/svg">
 <path d="m131.25 525h37.5v112.5h-37.5z" fill="#fff"/>
 <path d="m1031.2 525h37.5v112.5h-37.5z" fill="#fff"/>
 <path d="m478.12 534.56c10.312 0 18.562-8.25 18.562-18.562 0.75-0.9375 5.25-3 11.625-2.625 5.625 0.375 8.625 2.4375 9 3.375 0.5625 10.312 9.5625 18 19.875 17.625 10.312-0.5625 18.188-9.5625 17.625-19.875-1.3125-23.25-22.312-39.562-50.062-38.812-26.25 0.75-45.188 17.438-45.188 39.75 0 10.312 8.25 18.938 18.75 18.938z" fill="#fff"/>
 <path d="m721.88 534.38c10.312 0 18.75-8.4375 18.75-18.75 0-22.312-19.125-39-45.188-39.75-27.375-0.75-48.75 15.375-50.062 38.625-0.5625 10.312 7.3125 19.125 17.625 19.688 10.688 0.375 19.312-7.3125 19.875-17.625 0.375-0.75 3.375-2.8125 9-3.1875 6.375-0.5625 10.875 1.6875 11.438 2.0625 0 10.5 8.4375 18.938 18.75 18.938z" fill="#fff"/>
 <path d="m553.12 618.75c0 20.625 16.875 37.5 37.5 37.5h18.75c20.625 0 37.5-16.875 37.5-37.5v-18.75h-93.75z" fill="#fff"/>
 <path d="m501.75 381.75c3.1875 17.812 18.75 30.75 36.938 30.75h124.88c18.188 0 33.562-12.938 36.938-30.75l13.688-75c4.125-23.062-13.5-44.25-36.938-44.25h-152.25c-23.438 0-41.062 21.188-36.938 44.25z" fill="#fff"/>
 <path d="m919.88 918.75h-262.31v-93.75h123.56c47.25 0 87-35.062 93-81.938l8.625-68.062h111v-187.5h-9.375v-342.75c11.25-6.5625 18.75-18.375 18.75-32.25 0-20.625-16.875-37.5-37.5-37.5s-37.5 16.875-37.5 37.5c0 13.875 7.5 25.875 18.75 32.25v342.75h-40.5l10.312-81.938c7.125-56.062-36.562-105.56-93-105.56h-71.812c0 4.5 0 9-0.9375 13.5l-11.25 61.5h84c6.9375 0 11.438 3.375 14.062 6.375 2.625 2.8125 5.4375 7.875 4.5 14.812l-42.75 337.5c-1.125 9.375-9.1875 16.312-18.562 16.312h-359.81c-9.375 0-17.438-7.125-18.562-16.312l-42.75-337.5c-0.9375-6.9375 2.0625-11.812 4.5-14.812 2.625-2.8125 7.125-6.375 14.062-6.375h84l-11.25-61.5c-0.75-4.5-0.9375-9-0.9375-13.5h-71.812c-56.438 0-100.12 49.5-93 105.56l10.312 81.938h-42.75v-342.75c11.25-6.5625 18.75-18.375 18.75-32.25 0-20.625-16.875-37.5-37.5-37.5s-37.5 16.875-37.5 37.5c0 13.875 7.5 25.875 18.75 32.25v342.75h-9.375v187.5h113.44l8.625 68.062c6 46.875 45.75 81.938 93 81.938h123.56v93.75h-262.31c-33.375 0-62.812 22.125-72 54.188l-44.062 152.06h869.62l-44.062-152.06c-9.375-32.062-38.625-54.188-72-54.188zm-231.75 121.88h-174c-10.312 0-18.75-8.4375-18.75-18.75s8.4375-18.75 18.75-18.75h174c10.312 0 18.75 8.4375 18.75 18.75s-8.4375 18.75-18.75 18.75z" fill="#fff"/>
</svg>
