<?xml version="1.0" encoding="UTF-8"?>
<svg width="1200pt" height="1200pt" version="1.1" viewBox="0 0 1200 1200" xmlns="http://www.w3.org/2000/svg">
 <path d="m655 482.34v26.539h53.09v-26.539c0-14.641-11.906-26.547-26.539-26.547-14.645 0-26.551 11.906-26.551 26.547z" fill="#fff"/>
 <path d="m825.12 196.45c0-47.668-38.781-86.449-86.449-86.449l-149.3-0.003906c23.992 21.16 39.23 52.023 39.23 86.449 0 34.422-15.238 65.285-39.23 86.445h149.3c47.664 0 86.449-38.773 86.449-86.441z" fill="#fff"/>
 <path d="m484.47 311.82h89.531v197.05h-89.531z" fill="#fff"/>
 <path d="m815.89 578.54c0-22.469-18.277-40.746-40.746-40.746l-350.29 0.003906c-22.473 0-40.746 18.273-40.746 40.746v106.61h431.79z" fill="#fff"/>
 <path d="m565.23 902.03c0 80.355-44.035 150.49-109.14 187.96h287.82c-65.102-37.473-109.14-107.61-109.14-187.96s44.031-150.49 109.13-187.96h-287.81c65.102 37.473 109.13 107.6 109.13 187.96z" fill="#fff"/>
 <path d="m357.66 902.03c0 5.1484-4.1719 9.3203-9.3203 9.3203-5.1445 0-9.3164-4.1719-9.3164-9.3203 0-5.1445 4.1719-9.3164 9.3164-9.3164 5.1484 0 9.3203 4.1719 9.3203 9.3164" fill="#fff"/>
 <path d="m348.34 952.57c27.867 0 50.535-22.668 50.535-50.535 0-27.859-22.672-50.527-50.535-50.527-27.867 0-50.535 22.668-50.535 50.527 0 27.867 22.672 50.535 50.535 50.535zm0-88.773c21.086 0 38.246 17.152 38.246 38.238s-17.16 38.242-38.246 38.242-38.246-17.152-38.246-38.242c0-21.086 17.16-38.238 38.246-38.238z" fill="#fff"/>
 <path d="m250.03 930.9c2.1055 7.1953 4.9141 14.016 8.3477 20.27 3.0938 5.6406 2.0898 12.645-2.457 17.188l-8.9258 8.918 26.117 26.105 8.9102-8.918c4.5625-4.5352 11.555-5.543 17.172-2.457 6.2578 3.4258 13.078 6.2305 20.297 8.3477 6.1562 1.8008 10.395 7.457 10.395 13.875v12.668h36.918v-12.668c0-6.4258 4.2344-12.082 10.41-13.883 7.1758-2.0977 14.012-4.8984 20.281-8.3398 5.6367-3.0938 12.629-2.0898 17.176 2.457l8.9102 8.918 26.113-26.105-8.9258-8.918c-4.5469-4.543-5.5508-11.547-2.457-17.188 3.4336-6.25 6.2422-13.07 8.3477-20.27 1.8086-6.1719 7.457-10.41 13.883-10.41h12.668v-36.918h-12.668c-6.4258 0-12.074-4.2383-13.883-10.402-2.1055-7.1953-4.9141-14.02-8.3477-20.281-3.0938-5.6445-2.0898-12.641 2.457-17.188l8.9258-8.9062-26.113-26.109-8.9102 8.918c-4.5312 4.5547-11.523 5.5703-17.176 2.457-6.2695-3.4336-13.105-6.2422-20.293-8.3555-6.1602-1.8008-10.395-7.457-10.395-13.875v-12.664l-36.922 0.003906v12.664c0 6.418-4.2383 12.074-10.395 13.875-7.1875 2.1133-14.027 4.9219-20.297 8.3555-5.6328 3.0977-12.629 2.082-17.172-2.457l-8.9102-8.918-26.117 26.109 8.9258 8.918c4.5469 4.543 5.5508 11.547 2.457 17.188-3.4336 6.25-6.2422 13.066-8.3477 20.27-1.8086 6.1641-7.457 10.402-13.883 10.402h-12.668v36.918h12.668c6.4258-0.003906 12.074 4.2344 13.883 10.406zm98.312-108.32c43.812 0 79.457 35.641 79.457 79.453s-35.648 79.461-79.457 79.461c-43.812 0-79.461-35.648-79.461-79.461 0.003907-43.812 35.652-79.453 79.461-79.453z" fill="#fff"/>
 <path d="m348.34 1090c103.64 0 187.96-84.32 187.96-187.96 0-103.64-84.316-187.96-187.96-187.96-103.64 0-187.96 84.32-187.96 187.96 0 103.64 84.32 187.96 187.96 187.96zm-122.58-140.58h-16.75c-7.9922 0-14.461-6.4766-14.461-14.461v-65.844c0-7.9883 6.4688-14.461 14.461-14.461h16.75c0.76172-1.957 1.5547-3.8906 2.3867-5.793l-11.836-11.836c-2.7109-2.7109-4.2383-6.3906-4.2383-10.227s1.5234-7.5156 4.2383-10.227l46.566-46.559c2.7109-2.7109 6.3828-4.2383 10.227-4.2383 3.8398 0 7.5156 1.5273 10.227 4.2383l11.836 11.836c1.8945-0.83984 3.8281-1.6328 5.793-2.3867v-16.75c0-7.9883 6.4688-14.465 14.461-14.465h65.844c7.9961 0 14.465 6.4766 14.465 14.465v16.75c1.9648 0.75781 3.8984 1.5469 5.793 2.3867l11.836-11.836c5.4219-5.4102 15.027-5.4375 20.449 0l46.566 46.559c2.7109 2.7109 4.2383 6.3906 4.2383 10.227 0 3.8438-1.5273 7.5195-4.2383 10.23l-11.836 11.82c0.83203 1.9062 1.625 3.8438 2.3867 5.8008h16.75c7.9961 0 14.465 6.4727 14.465 14.461v65.844c0 7.9883-6.4688 14.461-14.465 14.461h-16.75c-0.74609 1.9648-1.5547 3.8906-2.3867 5.7969l11.836 11.836c2.7109 2.7109 4.2383 6.3906 4.2383 10.227 0 3.8359-1.5273 7.5156-4.2383 10.227l-46.566 46.559c-2.7109 2.7109-6.3828 4.2383-10.227 4.2383-3.8398 0-7.5117-1.5234-10.227-4.2383l-11.836-11.836c-1.9062 0.83984-3.8281 1.6328-5.793 2.3789v16.758c0 7.9883-6.4688 14.465-14.465 14.465h-65.844c-7.9922 0-14.461-6.4727-14.461-14.465v-16.758c-1.9648-0.74609-3.8828-1.5469-5.793-2.3789l-11.836 11.836c-5.4102 5.4141-15.016 5.4297-20.453 0l-46.566-46.559c-2.7109-2.7109-4.2383-6.3906-4.2383-10.227 0-3.8359 1.5234-7.5117 4.2383-10.227l11.836-11.836c-0.82813-1.9023-1.6328-3.8281-2.3828-5.793z" fill="#fff"/>
 <path d="m851.66 851.51c-27.867 0-50.535 22.668-50.535 50.527 0 27.867 22.668 50.535 50.535 50.535s50.535-22.668 50.535-50.535c-0.003906-27.859-22.672-50.527-50.535-50.527zm0 88.766c-21.086 0-38.246-17.152-38.246-38.242 0-21.086 17.16-38.238 38.246-38.238s38.246 17.152 38.246 38.238c0 21.09-17.16 38.242-38.246 38.242z" fill="#fff"/>
 <path d="m976.52 883.57h-12.668c-6.4258 0-12.074-4.2383-13.883-10.402-2.1055-7.1953-4.9141-14.02-8.3477-20.281-3.0938-5.6445-2.0898-12.641 2.457-17.188l8.9258-8.9062-26.117-26.109-8.9102 8.918c-4.5469 4.5547-11.523 5.5703-17.172 2.457-6.2695-3.4336-13.105-6.2422-20.297-8.3555-6.1562-1.8008-10.395-7.457-10.395-13.875v-12.664h-36.922v12.664c0 6.418-4.2344 12.074-10.395 13.875-7.1914 2.1133-14.027 4.9219-20.297 8.3555-5.6484 3.0977-12.629 2.082-17.176-2.457l-8.9102-8.918-26.113 26.109 8.9258 8.918c4.5469 4.543 5.5508 11.547 2.457 17.188-3.4336 6.25-6.2422 13.066-8.3477 20.27-1.8086 6.1641-7.457 10.402-13.883 10.402h-12.668v36.918h12.668c6.4258 0 12.074 4.2383 13.883 10.41 2.1055 7.1953 4.9141 14.016 8.3477 20.27 3.0938 5.6406 2.0898 12.645-2.457 17.188l-8.9258 8.918 26.113 26.105 8.9102-8.918c4.5469-4.5352 11.539-5.543 17.176-2.457 6.2578 3.4258 13.078 6.2305 20.297 8.3477 6.1562 1.8008 10.395 7.457 10.395 13.875v12.668h36.922v-12.668c0-6.4258 4.2383-12.082 10.406-13.883 7.1758-2.0977 14.012-4.8984 20.281-8.3398 5.6328-3.0938 12.629-2.0898 17.172 2.457l8.9102 8.918 26.117-26.105-8.9258-8.918c-4.5469-4.543-5.5508-11.547-2.457-17.188 3.4336-6.25 6.2422-13.07 8.3477-20.27 1.8086-6.1719 7.457-10.41 13.883-10.41h12.668zm-124.86 97.918c-43.812 0-79.457-35.648-79.457-79.461 0-43.809 35.648-79.453 79.457-79.453 43.812 0 79.461 35.641 79.461 79.453-0.003907 43.812-35.652 79.461-79.461 79.461z" fill="#fff"/>
 <path d="m860.97 902.03c0 5.1484-4.1719 9.3203-9.3164 9.3203-5.1484 0-9.3203-4.1719-9.3203-9.3203 0-5.1445 4.1719-9.3164 9.3203-9.3164 5.1445 0 9.3164 4.1719 9.3164 9.3164" fill="#fff"/>
 <path d="m1039.6 902.03c0-103.64-84.32-187.96-187.96-187.96s-187.96 84.32-187.96 187.96c0 103.65 84.32 187.96 187.96 187.96 103.64 0.003906 187.96-84.316 187.96-187.96zm-102.5 132.03c-2.7109 2.7109-6.3828 4.2383-10.227 4.2383-3.8398 0-7.5156-1.5234-10.227-4.2383l-11.836-11.836c-1.9062 0.83984-3.8281 1.6328-5.793 2.3789v16.758c0 7.9883-6.4688 14.465-14.465 14.465h-65.844c-7.9961 0-14.465-6.4727-14.465-14.465v-16.758c-1.9648-0.74609-3.8867-1.5469-5.7891-2.3789l-11.836 11.836c-5.4219 5.4141-15.027 5.4297-20.449 0l-46.566-46.559c-2.7109-2.7109-4.2383-6.3906-4.2383-10.227 0-3.8359 1.5273-7.5117 4.2383-10.227l11.836-11.836c-0.83203-1.9062-1.6406-3.8359-2.3867-5.7969h-16.75c-7.9961 0-14.465-6.4766-14.465-14.461v-65.844c0-7.9883 6.4688-14.461 14.465-14.461h16.75c0.76172-1.957 1.5547-3.8906 2.3867-5.793l-11.836-11.836c-2.7109-2.7109-4.2383-6.3906-4.2383-10.227s1.5273-7.5156 4.2383-10.227l46.566-46.559c2.7109-2.7109 6.3828-4.2383 10.227-4.2383 3.8398 0 7.5117 1.5273 10.227 4.2383l11.836 11.836c1.8906-0.83984 3.8281-1.6328 5.7891-2.3867v-16.75c0-7.9883 6.4688-14.465 14.465-14.465h65.844c7.9922 0 14.465 6.4766 14.465 14.465v16.75c1.9648 0.75781 3.8984 1.5469 5.793 2.3867l11.836-11.836c5.4102-5.4102 15.016-5.4375 20.453 0l46.566 46.559c2.7109 2.7109 4.2383 6.3906 4.2383 10.227 0 3.8438-1.5273 7.5195-4.2383 10.23l-11.836 11.82c0.83203 1.9062 1.625 3.8438 2.3867 5.8008h16.75c7.9922 0 14.461 6.4727 14.461 14.461v65.844c0 7.9883-6.4688 14.461-14.461 14.461h-16.75c-0.75 1.9648-1.5547 3.8906-2.3867 5.7969l11.836 11.836c2.7109 2.7109 4.2383 6.3906 4.2383 10.227 0 3.8359-1.5273 7.5156-4.2383 10.227z" fill="#fff"/>
 <path d="m473.3 196.45c0 7.7422-6.2773 14.016-14.02 14.016s-14.016-6.2734-14.016-14.016 6.2734-14.02 14.016-14.02 14.02 6.2773 14.02 14.02" fill="#fff"/>
 <path d="m365.56 196.45c0 7.7422-6.2773 14.016-14.02 14.016-7.7422 0-14.016-6.2734-14.016-14.016s6.2734-14.02 14.016-14.02c7.7422 0 14.02 6.2773 14.02 14.02" fill="#fff"/>
 <path d="m316.71 282.89h196.52c47.668 0 86.449-38.777 86.449-86.445s-38.781-86.449-86.449-86.449h-196.52c-47.668 0-86.449 38.785-86.449 86.449 0 47.672 38.781 86.445 86.449 86.445zm142.58-129.39c23.672 0 42.934 19.266 42.934 42.941 0 23.68-19.262 42.941-42.934 42.941-23.688 0-42.949-19.266-42.949-42.941s19.266-42.941 42.949-42.941zm-107.75 0c23.684 0 42.949 19.266 42.949 42.941 0 23.68-19.266 42.941-42.949 42.941-23.672 0-42.938-19.266-42.938-42.941s19.266-42.941 42.938-42.941z" fill="#fff"/>
</svg>
