<?xml version="1.0" encoding="UTF-8"?>
<svg width="1200pt" height="1200pt" version="1.1" viewBox="0 0 1200 1200" xmlns="http://www.w3.org/2000/svg">
 <path d="m736.34 912.16h70.184v74.488h-70.184z"/>
 <path d="m696.21 266.86c11.836 7.3594 22.77 16.02 32.703 25.914l193.31-191.54 0.007813-0.007813c8.0977-8.0078 8.1797-21.09 0.19531-29.168-7.9062-8-21.336-8.082-29.32-0.19531z"/>
 <path d="m471.09 292.77c9.9375-9.8945 20.867-18.555 32.703-25.914l-196.9-195.02c-3.9531-3.9062-9.2422-5.8555-14.531-5.8555-5.3945 0-10.785 2.0273-14.777 6.0664-7.9922 8.0781-7.9102 21.16 0.1875 29.168z"/>
 <path d="m393.48 912.16h70.184v74.488h-70.184z"/>
 <path d="m282.87 1134c45.207 0 81.992-36.785 81.992-81.992v-205.22c0-45.207-36.785-81.992-81.992-81.992-45.215 0-82 36.785-82 81.992v205.22c0 45.207 36.785 81.992 82 81.992zm-26.953-296.24h53.902c7.9023 0 14.305 6.4062 14.305 14.309 0 7.9023-6.4062 14.305-14.305 14.305h-53.902c-7.8984 0-14.305-6.4062-14.305-14.305-0.003906-7.9023 6.4023-14.309 14.305-14.309zm0 64.883h53.902c7.9023 0 14.305 6.4062 14.305 14.309s-6.4062 14.309-14.305 14.309h-53.902c-7.8984 0-14.305-6.4062-14.305-14.309-0.003906-7.9023 6.4023-14.309 14.305-14.309zm0 64.883h53.902c7.9023 0 14.305 6.4062 14.305 14.309s-6.4062 14.309-14.305 14.309h-53.902c-7.8984 0-14.305-6.4062-14.305-14.309-0.003906-7.9023 6.4023-14.309 14.305-14.309zm0 64.887h53.902c7.9023 0 14.305 6.4062 14.305 14.309s-6.4062 14.309-14.305 14.309h-53.902c-7.8984 0-14.305-6.4062-14.305-14.309-0.003906-7.8984 6.4023-14.309 14.305-14.309z"/>
 <path d="m835.14 846.8v205.22c0 45.207 36.785 81.992 81.992 81.992 45.215 0 82-36.785 82-81.992v-205.22c0-45.207-36.785-81.992-82-81.992-45.211 0-81.992 36.785-81.992 81.992zm108.95 214.24h-53.902c-7.9023 0-14.305-6.4062-14.305-14.309s6.4062-14.309 14.305-14.309h53.902c7.8984 0 14.305 6.4062 14.305 14.309 0.003906 7.9023-6.4023 14.309-14.305 14.309zm0-64.887h-53.902c-7.9023 0-14.305-6.4062-14.305-14.309s6.4062-14.309 14.305-14.309h53.902c7.8984 0 14.305 6.4062 14.305 14.309 0.003906 7.8984-6.4023 14.309-14.305 14.309zm0-64.883h-53.902c-7.9023 0-14.305-6.4062-14.305-14.309s6.4062-14.309 14.305-14.309h53.902c7.8984 0 14.305 6.4062 14.305 14.309 0.003906 7.9023-6.4023 14.309-14.305 14.309zm14.309-79.191c0 7.9023-6.4062 14.305-14.305 14.305l-53.906 0.003906c-7.9023 0-14.305-6.4062-14.305-14.305 0-7.9023 6.4062-14.309 14.305-14.309h53.902c7.9023-0.003906 14.309 6.4023 14.309 14.305z"/>
 <path d="m396.39 628.25h407.21c17.461 0 31.664-14.203 31.664-31.656 0-17.457-14.203-31.664-31.664-31.664h-407.21c-17.457 0-31.664 14.203-31.664 31.664 0.003906 17.453 14.207 31.656 31.664 31.656zm244.12-45.965h91.27c7.9023 0 14.309 6.4062 14.309 14.309s-6.4062 14.309-14.309 14.309h-91.27c-7.9023 0-14.309-6.4062-14.309-14.309s6.4102-14.309 14.309-14.309zm-60.492 0h14.781c7.9023 0 14.309 6.4062 14.309 14.309s-6.4062 14.309-14.309 14.309h-14.781c-7.9023 0-14.309-6.4062-14.309-14.309s6.4062-14.309 14.309-14.309zm-56.465 0h14.781c7.9023 0 14.309 6.4062 14.309 14.309s-6.4062 14.309-14.309 14.309h-14.781c-7.9023 0-14.309-6.4062-14.309-14.309s6.4062-14.309 14.309-14.309zm-63.184 0h17.594c7.9023 0 14.309 6.4062 14.309 14.309s-6.4062 14.309-14.309 14.309h-17.594c-7.9023 0-14.309-6.4062-14.309-14.309s6.4062-14.309 14.309-14.309z"/>
 <path d="m280.9 550.56v89.887c0 31.082 25.285 56.367 56.367 56.367h140.7c7.9023 0 14.309 6.4062 14.309 14.309v298.02c0 54.613 44.434 99.047 99.047 99.047h17.355c54.613 0 99.043-44.434 99.043-99.047v-298.03c0-7.9023 6.4062-14.309 14.309-14.309h140.7c31.082 0 56.367-25.281 56.367-56.367v-89.887c0-31.078-25.285-56.359-56.367-56.359l-525.46 0.003907c-31.082 0-56.367 25.281-56.367 56.359zm115.49-14.246h407.21c33.242 0 60.277 27.035 60.277 60.277 0 33.234-27.035 60.27-60.277 60.27h-407.21c-33.242 0-60.277-27.035-60.277-60.27 0-33.242 27.039-60.277 60.277-60.277z"/>
 <path d="m676.66 381.84c0 7.4062-6.0039 13.414-13.414 13.414-7.4062 0-13.414-6.0078-13.414-13.414 0-7.4102 6.0078-13.414 13.414-13.414 7.4102 0 13.414 6.0039 13.414 13.414"/>
 <path d="m550.17 381.84c0 7.4062-6.0078 13.414-13.414 13.414-7.4102 0-13.414-6.0078-13.414-13.414 0-7.4102 6.0039-13.414 13.414-13.414 7.4062 0 13.414 6.0039 13.414 13.414"/>
 <path d="m482.42 322.63c-23.738 28.031-36.816 63.469-36.816 99.777v43.176h308.8v-43.176c0-36.309-13.078-71.746-36.816-99.777-14.305-16.762-31.543-30.082-51.242-39.574l-0.011719-0.003907c-40.816-19.688-91.844-19.688-132.66 0h-0.007813c-19.699 9.4961-36.938 22.812-51.242 39.578zm180.83 17.184c23.172 0 42.031 18.855 42.031 42.031s-18.855 42.031-42.031 42.031c-23.172 0-42.031-18.855-42.031-42.031 0.003906-23.176 18.859-42.031 42.031-42.031zm-126.49 0c23.172 0 42.031 18.855 42.031 42.031s-18.855 42.031-42.031 42.031c-23.172 0-42.031-18.855-42.031-42.031s18.855-42.031 42.031-42.031z"/>
</svg>
