<?xml version="1.0" encoding="UTF-8"?>
<svg width="1200pt" height="1200pt" version="1.1" viewBox="0 0 1200 1200" xmlns="http://www.w3.org/2000/svg">
 <path d="m225 1125h150v-180.75c-72.938 33.75-129.38 99-150 180.75z"/>
 <path d="m825 944.25v180.75h150c-20.625-81.75-77.062-147-150-180.75z"/>
 <path d="m691.12 952.69c-30 14.25-60.562 21.375-91.125 21.375s-61.125-7.125-91.125-21.375c-13.125-6.1875-21.375-19.312-21.375-33.75-25.875 0.1875-51 4.125-75 11.25v194.81h375v-194.81c-24-7.125-49.125-11.062-75-11.25 0 14.438-8.4375 27.562-21.375 33.75z"/>
 <path d="m525 822.94v95.812c50.062 23.625 99.938 23.625 150 0v-95.812c-26.062 1.3125-51.375 2.0625-75 2.0625s-48.938-0.75-75-2.0625z"/>
 <path d="m600 787.5c122.81 0 281.25-18.75 365.62-56.25 28.125-75 28.125-112.5 28.125-168.75s0-93.75-28.125-168.75c-47.625-21.188-118.88-36.375-193.88-45.562l75.938-161.25c1.875 0 3.5625 0.5625 5.4375 0.5625 31.125 0 56.25-25.125 56.25-56.25s-25.125-56.25-56.25-56.25-56.25 25.125-56.25 56.25c0 15.562 6.375 29.812 16.688 39.938l-81.375 172.69c-45.375-4.3125-90.75-6.375-132.38-6.375s-87 2.25-132.38 6.375l-81.375-172.69c10.312-10.125 16.688-24.375 16.688-39.938 0-31.125-25.125-56.25-56.25-56.25s-56.25 25.125-56.25 56.25 25.125 56.25 56.25 56.25c1.875 0 3.5625-0.375 5.4375-0.5625l75.938 161.25c-75 9.1875-146.25 24.375-193.88 45.562-28.125 75-28.125 112.5-28.125 168.75s0 93.75 28.125 168.75c84.375 37.5 242.81 56.25 365.62 56.25zm-192.19-318.75h384.38c46.688 0 84.375 37.688 84.375 84.375s-37.688 84.375-84.375 84.375h-384.38c-46.688 0-84.375-37.688-84.375-84.375s37.688-84.375 84.375-84.375z"/>
 <path d="m478.12 582.56c10.312 0 18.75-8.25 18.75-18.562 0.75-0.9375 5.4375-3.1875 11.625-2.625 5.625 0.375 8.625 2.4375 9 3.375 0.5625 10.312 9.75 18.562 19.875 17.625 10.312-0.5625 18.188-9.5625 17.625-19.875-1.3125-23.25-22.875-39.562-50.062-38.625-26.25 0.75-45.188 17.438-45.188 39.75 0 10.312 8.25 18.938 18.75 18.938z"/>
 <path d="m662.81 582.38c10.688 0.375 19.312-7.3125 19.875-17.625 0.375-0.75 3.375-2.8125 9-3.1875 6.375-0.5625 10.875 1.6875 11.438 2.0625 0 10.5 8.4375 18.938 18.75 18.938s18.75-8.4375 18.75-18.75c0-22.312-19.125-39-45.188-39.75-27.188-0.9375-48.75 15.375-50.062 38.625-0.5625 10.312 7.3125 19.125 17.625 19.688z"/>
</svg>
