<?xml version="1.0" encoding="UTF-8"?>
<svg width="1200pt" height="1200pt" version="1.1" viewBox="0 0 1200 1200" xmlns="http://www.w3.org/2000/svg">
 <path d="m928.12 600h-10.875c-24.188-89.062-87.375-162-170.44-198.75l100.88-214.31c1.875 0 3.5625 0.5625 5.4375 0.5625 31.125 0 56.25-25.125 56.25-56.25s-25.125-56.25-56.25-56.25-56.25 25.125-56.25 56.25c0 15.562 6.375 29.812 16.688 39.938l-102 216.75c-27.938-8.4375-57.375-13.125-88.125-13.125h-46.875c-30.562 0-60.188 4.6875-88.125 13.125l-102-216.75c10.312-10.125 16.688-24.375 16.688-39.938 0-31.125-25.125-56.25-56.25-56.25s-56.25 25.125-56.25 56.25 25.125 56.25 56.25 56.25c1.875 0 3.5625-0.375 5.4375-0.5625l100.88 214.31c-83.062 36.938-146.25 109.69-170.44 198.75h-10.875c-41.438 0-75 33.562-75 75s33.562 75 75 75v75h178.12v37.5h300v-37.5h178.12v-75c41.438 0 75-33.562 75-75s-33.562-75-75-75zm-506.25 37.5c0-31.125 25.125-56.25 56.25-56.25s56.25 25.125 56.25 56.25-25.125 56.25-56.25 56.25-56.25-25.125-56.25-56.25zm300 56.25c-31.125 0-56.25-25.125-56.25-56.25s25.125-56.25 56.25-56.25 56.25 25.125 56.25 56.25-25.125 56.25-56.25 56.25z"/>
 <path d="m804.38 900h-408.75l-37.5 37.5h483.75l-37.5-37.5z"/>
 <path d="m262.5 975h675v150h-675z"/>
</svg>
