<?xml version="1.0" encoding="UTF-8"?>
<svg width="1200pt" height="1200pt" version="1.1" viewBox="0 0 1200 1200" xmlns="http://www.w3.org/2000/svg">
 <path d="m543.75 468.75h112.5v112.5h-112.5z"/>
 <path d="m900 75h-600c-41.438 0-75 33.562-75 75v206.25c0 41.438 33.562 75 75 75h600c41.438 0 75-33.562 75-75v-206.25c0-41.438-33.562-75-75-75zm-103.12 281.25h-393.75c-57 0-103.12-46.125-103.12-103.12s46.125-103.12 103.12-103.12h393.75c57 0 103.12 46.125 103.12 103.12s-46.125 103.12-103.12 103.12z"/>
 <path d="m505.5 223.88c-26.25 0.75-45.188 17.438-45.188 39.75 0 10.312 8.25 18.938 18.75 18.938s18.562-8.25 18.562-18.562c0.75-0.9375 5.25-3 11.625-2.625 5.625 0.375 8.625 2.4375 9 3.375 0.5625 10.312 9.5625 18.188 19.875 17.625s18.188-9.5625 17.625-19.875c-1.3125-23.25-22.312-39.375-50.062-38.812z"/>
 <path d="m696.19 223.88c-27.75-0.5625-48.75 15.562-50.062 38.812-0.5625 10.312 7.3125 19.125 17.625 19.688s19.125-7.3125 19.875-17.625c0.375-0.75 3.375-2.8125 9-3.1875 6.375-0.375 10.875 1.6875 11.438 2.0625 0 10.5 8.4375 18.938 18.75 18.938s18.75-8.4375 18.75-18.75c0-22.312-19.125-39-45.375-39.75z"/>
 <path d="m525 618.75h150v112.5h-150z"/>
 <path d="m881.25 768.75h-562.5v75h-93.75v281.25h750v-281.25h-93.75zm-131.25 226.12h-300v-19.875c0-20.625 16.875-37.5 37.5-37.5h225c20.625 0 37.5 16.875 37.5 37.5zm-300 92.625v-55.125h300v55.125z"/>
</svg>
