<?xml version="1.0" encoding="UTF-8"?>
<svg width="1200pt" height="1200pt" version="1.1" viewBox="0 0 1200 1200" xmlns="http://www.w3.org/2000/svg">
 <path d="m347.18 379.69c1.1719 9.0703 5.6016 17.402 12.469 23.441 6.8672 6.0391 15.699 9.3672 24.844 9.3711h11.477c35.68 111.51 113.47 206.25 204.04 206.25s168.36-94.742 204.04-206.25h11.477-0.003906c9.1445-0.003906 17.977-3.332 24.844-9.3711 6.8672-6.0391 11.297-14.371 12.469-23.441l9.375-75c1.3477-10.695-1.9727-21.457-9.1172-29.531-7.1406-8.0742-17.414-12.688-28.195-12.656h-0.86328c-9.168-140.08-105.9-206.25-224.02-206.25s-214.86 66.168-224.02 206.25h-0.86328c-10.781-0.03125-21.055 4.582-28.195 12.656-7.1445 8.0742-10.465 18.836-9.1172 29.531zm95.137-210.94h45.188v-45.262c11.738-7.418 24.332-13.391 37.5-17.793v63.055h56.25v-74.25c6.8242-0.48828 13.238-0.75 18.75-0.75s11.926 0.26172 18.75 0.75v74.25h56.25v-63.094c13.164 4.3984 25.754 10.359 37.5 17.758v45.336h45.336c7.4219 11.719 13.355 24.316 17.664 37.5h-350.89c4.3281-13.184 10.273-25.777 17.699-37.5zm-29.324 100.73c0.46875-9.0742 1.4258-17.551 2.6055-25.727h368.85c1.1445 8.0078 2.082 16.293 2.5508 25.164 0.35547 5.625 0.50781 10.742 0.50781 15.898h-0.003906c-0.28516 35.922-5.6445 71.625-15.918 106.05-32.215 110.34-104.36 190.39-171.58 190.39s-139.37-80.043-171.56-190.31c-10.285-34.449-15.648-70.176-15.938-106.12 0-5.1562 0.14844-10.332 0.48828-15.336z"/>
 <path d="m599.95 934.27 40.875-110.25-22.07-55.273 9.4297-37.727-28.18-14.098-28.18 14.098 9.4297 37.727-22.105 55.367z"/>
 <path d="m375.54 857.81-60.918-30.449 19.258-113.55c-44.918 17.316-90.863 31.844-137.57 43.5-40.16 10.387-75.723 33.84-101.08 66.668s-39.074 73.164-38.98 114.64v205.12h466.01l14.137-38.117-207.94-180.77z"/>
 <path d="m717.94 616.03-117.94 58.969 81.055 40.52z"/>
 <path d="m492.82 645 26.121 70.539 81.055-40.539-117.99-58.988z"/>
 <path d="m545.62 895.5-48.75-131.44-39.188-105.94-7.6875-20.625c-0.75 1.125-1.6875 2.4375-2.625 3.75-18.312 22.805-41.938 40.77-68.812 52.312-0.9375 0.5625-1.6875 0.9375-2.25 1.3125-0.9375 0.5625-1.3125 0.75-1.3125 0.75l-18.75 110.62 75 37.5-52.688 75 171.77 149.3 29.605-79.82z"/>
 <path d="m1003.7 757.31c-46.707-11.656-92.652-26.184-137.57-43.5l19.258 113.55-60.918 30.449 47.102 67.051-251.89 218.89h524.08v-205.12c0.09375-41.48-13.621-81.816-38.98-114.64s-60.922-56.281-101.08-66.668z"/>
 <path d="m768.75 843.75 75-37.5-18.75-110.62s-0.375-0.1875-1.3125-0.75c-0.78906-0.36719-1.543-0.80469-2.25-1.3125-11.559-5.6602-22.707-12.113-33.375-19.312-3.1875-2.0625-6.375-4.3125-9.1875-6.5625-3.0391-2.168-5.9219-4.5508-8.625-7.125-2.0703-1.5977-4.0117-3.3516-5.8125-5.25-2.2695-2.1719-4.4023-4.4922-6.375-6.9375-2.0469-2.1875-3.8672-4.5742-5.4375-7.125-0.9375-1.3125-1.875-2.625-2.625-3.75l-187.5 506.25 258.94-225z"/>
 <path d="m543.75 318.75c0 20.711-16.789 37.5-37.5 37.5s-37.5-16.789-37.5-37.5 16.789-37.5 37.5-37.5 37.5 16.789 37.5 37.5"/>
 <path d="m731.25 318.75c0 20.711-16.789 37.5-37.5 37.5s-37.5-16.789-37.5-37.5 16.789-37.5 37.5-37.5 37.5 16.789 37.5 37.5"/>
 <path d="m525 450h150v37.5h-150z"/>
</svg>
