<?xml version="1.0" encoding="UTF-8"?>
<svg width="1200pt" height="1200pt" version="1.1" viewBox="0 0 1200 1200" xmlns="http://www.w3.org/2000/svg">
 <path d="m1027.2 814.81v-146.41c0-76.668-24.297-137.26-72.199-180.1-28.508-25.48-64.609-43.379-107.27-53.488l-42.797-90.699h-117.03v-50.402h160.22l2.9961-1.6328c46.73-25.516 71.434-57.023 71.434-91.113-0.003906-80.535-141.7-143.62-322.59-143.62s-322.59 63.078-322.59 143.61c0 34.09 24.699 65.598 71.434 91.113l2.9961 1.6328h160.22v50.402h-117.03l-42.797 90.699c-42.66 10.109-78.758 28.008-107.27 53.488-47.902 42.84-72.199 103.43-72.199 180.1v146.41h-30.078l-60.441 104.54 60.441 104.54h132.64l-42.785-94.113h-35.547l-6.0547-10.43 6.0547-10.43h45.793l26.262 45.508 81.512-47.059-53.449-92.566-30.242 0.007812v-146.41c0-48.699 13.723-85.633 40.754-109.76 15.926-14.152 36.852-24.336 61.82-30.848l22.258 93.543h157.03v151.31l-157.64-0.003906v112.62h62.02c-15.402 26.117-23.777 56.086-23.777 86.707 0 94.109 76.562 170.67 170.66 170.67s170.66-76.562 170.66-170.67c0-30.617-8.3789-60.586-23.777-86.707h62.02v-112.62h-157.64v-151.31h157.03l22.258-93.543c24.965 6.5117 45.891 16.691 61.793 30.828 27.059 24.148 40.781 61.082 40.781 109.78v146.41h-30.234l-53.449 92.566 81.512 47.059 26.262-45.508h45.793l6.0547 10.43-6.0547 10.43h-35.547l-42.785 94.113h132.64l60.441-104.54-60.441-104.54zm-723.16-613.84c0-56.477 118.91-116.95 295.93-116.95s295.93 60.469 295.93 116.95c0 22.773-19.363 46.164-54.609 66.082h-482.63c-35.246-19.914-54.609-43.309-54.609-66.082zm234.65 92.75h122.55v50.402h-122.55zm-248.83 245.01c-32.969 29.426-49.688 73.055-49.688 129.68v173.07h41.512l32.41 56.133-35.312 20.391-20.637-35.742h-76.551l-21.523 37.098 21.523 37.098h33.75l18.543 40.781h-75.848l-45.027-77.879 45.027-77.879h41.355l-0.003907-173.07c0-68.75 21.301-122.66 63.32-160.21 24.082-21.547 54.902-36.746 91.094-45.996l9.4492 39.719c-29.316 7.5625-54.148 19.715-73.395 36.816zm454.1 433.24c0 79.402-64.598 144-144 144-79.402 0-144-64.602-144-144 0-31.332 10.398-61.84 29.195-86.707h229.6c18.797 24.867 29.195 55.375 29.195 86.707zm38.242-113.37h-364.48v-59.285h364.48zm-157.64-85.953h-49.191l-0.003906-151.31h49.191zm162.63-177.97h-374.45l-35.715-149.99 34.871-73.898h376.14l34.871 73.898zm254.7 402.56h-75.848l18.543-40.781h33.75l21.523-37.098-21.523-37.098h-76.551l-20.637 35.742-35.312-20.391 32.41-56.133h41.512v-173.07c0-56.621-16.719-100.25-49.715-129.7-19.223-17.086-44.051-29.234-73.367-36.801l9.4492-39.719c36.191 9.25 67.012 24.453 91.094 45.996 42.02 37.559 63.32 91.465 63.32 160.21v173.07h41.355l45.027 77.879z" fill="#fff"/>
 <path d="m503.75 428.46c-29.922 0-54.27 24.348-54.27 54.27 0 29.93 24.348 54.277 54.27 54.277s54.27-24.348 54.27-54.277c0-29.922-24.348-54.27-54.27-54.27zm0 81.883c-15.223 0-27.605-12.383-27.605-27.609 0-15.223 12.383-27.605 27.605-27.605s27.605 12.383 27.605 27.605c0 15.227-12.383 27.609-27.605 27.609z" fill="#fff"/>
 <path d="m723.86 469.39h-133.18v26.668h133.18v27.609h26.664v-81.883h-26.664z" fill="#fff"/>
 <path d="m600 1062.6c49.973 0 90.637-40.656 90.637-90.637h-26.668c0 35.273-28.699 63.973-63.973 63.973z" fill="#fff"/>
 <path d="m600 1004.6c18.008 0 32.668-14.66 32.668-32.676s-14.66-32.668-32.668-32.668-32.668 14.656-32.668 32.668c0 18.016 14.66 32.676 32.668 32.676zm0-38.68c3.3086 0 6.0039 2.6953 6.0039 6.0039 0 3.3125-2.6953 6.0078-6.0039 6.0078s-6.0039-2.6953-6.0039-6.0078c0-3.3086 2.6953-6.0039 6.0039-6.0039z" fill="#fff"/>
 <path d="m723.58 122.84h-247.16c-33.465 0-60.691 27.227-60.691 60.691s27.227 60.691 60.691 60.691h247.16c33.465 0 60.691-27.227 60.691-60.691s-27.227-60.691-60.688-60.691zm0 94.711h-247.16c-18.762 0-34.023-15.262-34.023-34.023 0-18.762 15.262-34.023 34.023-34.023h247.16c18.762 0 34.023 15.262 34.023 34.023 0.003907 18.766-15.258 34.023-34.02 34.023z" fill="#fff"/>
 <path d="m513.18 170.2h173.64v26.668h-173.64z" fill="#fff"/>
</svg>
