<?xml version="1.0" encoding="UTF-8"?>
<svg width="1200pt" height="1200pt" version="1.1" viewBox="0 0 1200 1200" xmlns="http://www.w3.org/2000/svg">
 <path d="m825 975h-121.88v9.375c0 56.812-46.312 103.12-103.12 103.12s-103.12-46.312-103.12-103.12v-9.375h-121.88c-82.875 0-150 67.125-150 150h750c0-82.875-67.125-150-150-150z"/>
 <path d="m600 1050c36.188 0 65.625-29.438 65.625-65.625v-46.875h-131.25v46.875c0 36.188 29.438 65.625 65.625 65.625z"/>
 <path d="m300 731.25h18.75v93.75c0 41.438 33.562 75 75 75h412.5c41.438 0 75-33.562 75-75v-93.75h18.75c31.125 0 56.25-25.125 56.25-56.25v-112.5c0-31.125-25.125-56.25-56.25-56.25h-18.75v-93.75c0-41.438-33.562-75-75-75h-412.5c-41.438 0-75 33.562-75 75v93.75h-18.75c-31.125 0-56.25 25.125-56.25 56.25v112.5c0 31.125 25.125 56.25 56.25 56.25zm93.75-251.25c0-37.312 30.188-67.5 67.5-67.5h277.5c37.312 0 67.5 30.188 67.5 67.5v277.5c0 37.312-30.188 67.5-67.5 67.5h-277.5c-37.312 0-67.5-30.188-67.5-67.5z"/>
 <path d="m712.5 243.75h-93.75v-99c11.25-6.5625 18.75-18.375 18.75-32.25 0-20.625-16.875-37.5-37.5-37.5s-37.5 16.875-37.5 37.5c0 13.875 7.5 25.875 18.75 32.25v99h-93.75l-23.062 56.25h270.94l-23.062-56.25z"/>
 <path d="m478.12 572.06c10.312 0 18.75-8.25 18.75-18.562 0.75-0.9375 5.4375-3 11.625-2.625 5.625 0.375 8.625 2.4375 9 3.375 0.5625 10.312 9.75 18 19.875 17.625 10.312-0.5625 18.188-9.375 17.625-19.875-1.3125-23.25-22.875-39.562-50.062-38.812-26.25 0.75-45.188 17.438-45.188 39.75 0 10.312 8.25 18.938 18.75 18.938z"/>
 <path d="m662.81 571.69c10.688 0.9375 19.312-7.3125 19.875-17.625 0.375-0.75 3.375-2.8125 9-3.1875 6.375-0.5625 10.875 1.6875 11.438 2.0625 0 10.5 8.4375 18.938 18.75 18.938s18.75-8.4375 18.75-18.75c0-22.312-19.125-39-45.188-39.75-27.188-0.9375-48.75 15.562-50.062 38.812-0.5625 10.312 7.3125 19.125 17.625 19.688z"/>
 <path d="m553.12 656.25c0 20.625 16.875 37.5 37.5 37.5h18.75c20.625 0 37.5-16.875 37.5-37.5v-18.75h-93.75z"/>
</svg>
