<svg width="118" height="125" viewBox="0 0 118 125" fill="none" xmlns="http://www.w3.org/2000/svg">
<path d="M3 1.5H1.5V3V36V37.5H3H26.8208H27.6629L28.1014 36.7811C30.035 33.611 33.5217 31.5 37.5 31.5C43.5751 31.5 48.5 36.4249 48.5 42.5C48.5 48.5751 43.5751 53.5 37.5 53.5C33.5217 53.5 30.035 51.389 28.1014 48.2189L27.6629 47.5H26.8208H3H1.5V49V122V123.5H3H43H44.5V122V96.5009V95.7516L43.9009 95.3016C41.2257 93.2922 39.5 90.0978 39.5 86.5C39.5 80.4249 44.4249 75.5 50.5 75.5C56.5751 75.5 61.5 80.4249 61.5 86.5C61.5 90.0978 59.7743 93.2922 57.0991 95.3016L56.5 95.7516V96.5009V122V123.5H58H113H115.371L114.355 121.357L91.9954 74.2071C105.256 68.2777 114.5 54.9701 114.5 39.5C114.5 19.1841 98.5574 2.59196 78.5 1.55175V1.5H77H3Z" stroke="black" stroke-width="3"/>
</svg>
