<svg width="138" height="138" viewBox="0 0 138 138" fill="none" xmlns="http://www.w3.org/2000/svg">
<path d="M0 10C0 4.47715 4.47715 0 10 0H128C133.523 0 138 4.47715 138 10V128C138 133.523 133.523 138 128 138H10C4.47715 138 0 133.523 0 128V10Z" fill="white"/>
<path d="M14 9H88V9.00336C107.928 9.27091 124 25.5085 124 45.5C124 60.9645 114.383 74.1827 100.803 79.5H101L124 128H69V102.501C72.0361 100.22 74 96.5895 74 92.5C74 85.5964 68.4036 80 61.5 80C54.5964 80 49 85.5964 49 92.5C49 96.5895 50.9639 100.22 54 102.501V128H14V55H37.8208C40.0154 58.598 43.9772 61 48.5 61C55.4036 61 61 55.4036 61 48.5C61 41.5964 55.4036 36 48.5 36C43.9772 36 40.0154 38.402 37.8208 42H14V9Z" fill="black"/>
</svg>
