<svg width="118" height="125" viewBox="0 0 118 125" fill="none" xmlns="http://www.w3.org/2000/svg">
<path d="M1.5 1.5H3H77H78.5V1.55175C98.5574 2.59197 114.5 19.1841 114.5 39.5C114.5 54.9701 105.256 68.2777 91.9954 74.2071L114.355 121.357L115.371 123.5H113H79H77.5V122V121.98C76.9355 121.657 76.4628 121.236 76.1164 120.682C75.5985 119.853 75.4989 118.936 75.498 118.13C75.4978 117.995 75.439 117.628 75.2231 116.972C75.0199 116.354 74.7167 115.592 74.3274 114.721C73.55 112.982 72.4662 110.886 71.2604 108.766C70.0555 106.647 68.742 104.527 67.5117 102.74C66.2616 100.924 65.1598 99.5427 64.3797 98.828L64.3794 98.8277C63.5769 98.0921 62.9176 97.463 62.4072 96.9061C61.9036 96.3566 61.4744 95.803 61.2006 95.2099C60.9051 94.5697 60.8063 93.9179 60.9142 93.2371C61.0131 92.6133 61.2749 92.0446 61.5446 91.5409M1.5 1.5L62.867 92.249M1.5 1.5V3V122V123.5H3H21H22.5V122.982L22.636 122.98L22.8464 121.754L24.0474 114.754L24.0474 114.753C25.1998 108.03 27.3143 103.533 36.0888 89.808M1.5 1.5L36.448 73.951C32.547 70.287 30 63.565 30 56.938C30 50.05 31.196 46.476 34.748 42.753C37.717 39.641 46.551 36 51.134 36C58.797 36 72.438 42.066 72.58 45.537M61.5446 91.5409L62.867 92.249M61.5446 91.5409C61.5446 91.541 61.5446 91.5411 61.5445 91.5412L62.867 92.249M61.5446 91.5409C62.0431 90.6095 62.5 88.7474 62.5 87.566C62.5 86.9849 62.5193 86.3647 62.6623 85.813C62.8235 85.1907 63.1586 84.5893 63.8002 84.1647C64.3653 83.7908 65.0264 83.6535 65.628 83.5852C66.2485 83.5148 67.004 83.5 67.878 83.5C70.2273 83.5 71.0806 83.1434 71.4925 82.6914C71.9525 82.1868 72.2904 81.1223 72.303 78.4927C72.3161 75.7951 72.4729 73.6956 72.8469 72.173C73.2035 70.7216 73.8845 69.291 75.3624 68.7981L75.3629 68.7979C75.3765 68.7934 75.3857 68.7894 75.3914 68.7866M62.867 92.249C63.49 91.085 64 88.977 64 87.566C64 85.253 64.382 85 67.878 85C72.598 85 73.778 83.705 73.803 78.5C73.829 73.153 74.434 70.689 75.837 70.221C77.404 69.699 77.303 67.407 75.594 64.715C74.416 62.858 72.891 53.156 72.58 45.537M75.3914 68.7866C75.391 68.7873 75.3906 68.788 75.3903 68.7886C75.3888 68.7914 75.388 68.7925 75.388 68.7925C75.388 68.7926 75.3906 68.789 75.3958 68.7847C75.4006 68.7809 75.4003 68.7823 75.3914 68.7866ZM75.3914 68.7866C75.4053 68.7603 75.4582 68.6359 75.4455 68.3479C75.4184 67.7346 75.1068 66.7463 74.3276 65.5189L74.3274 65.5185C73.882 64.8165 73.5201 63.6274 73.2123 62.3607C72.8858 61.0178 72.5677 59.3495 72.2801 57.5196C71.7048 53.8596 71.2394 49.4718 71.0813 45.5983M71.0813 45.5983L72.58 45.537M71.0813 45.5983C71.0813 45.5983 71.0813 45.5982 71.0813 45.5982L72.58 45.537M71.0813 45.5983C71.0813 45.6005 71.0814 45.6016 71.0813 45.6016C71.0799 45.6018 71.0536 45.431 70.7643 45.0721C70.4701 44.7073 70.0026 44.2711 69.3506 43.7854C68.0512 42.8173 66.2005 41.7858 64.0679 40.8375C59.7718 38.927 54.667 37.5 51.134 37.5C49.1363 37.5 45.9985 38.3223 42.9073 39.5963C39.8049 40.8749 37.0945 42.4665 35.8333 43.7884L34.8441 42.8447L35.8333 43.7884C34.1769 45.5246 33.124 47.1642 32.4644 49.1347C31.7949 51.1351 31.5 53.5673 31.5 56.938C31.5 63.2567 33.9451 69.5423 37.4749 72.8577L37.4751 72.8578C39.607 74.8609 40.6875 77.1368 40.3727 80.0557C40.078 82.7885 38.569 85.9289 36.0888 89.808M36.0888 89.808C36.0888 89.808 36.0888 89.808 36.0888 89.808L34.8323 89.0046L36.0888 89.808Z" stroke="black" stroke-width="3"/>
</svg>
