<svg width="276" height="126" viewBox="0 0 276 126" fill="none" xmlns="http://www.w3.org/2000/svg">
<path d="M185.52 4.23909L185.519 4.23939C184.884 5.42687 183.109 9.93036 181.571 14.1872C180.024 18.4696 175.717 30.073 171.999 39.9726C154.176 87.4324 150.278 97.8547 146.096 109.256L141.592 121.529L140.839 123.581L143.024 123.546L177.206 123L178.45 122.98L178.66 121.754L179.861 114.754L179.861 114.753C181.014 108.03 183.128 103.533 191.903 89.808C194.383 85.9289 195.892 82.7885 196.187 80.0557C196.501 77.1368 195.421 74.8609 193.289 72.8578L193.289 72.8577C189.759 69.5423 187.314 63.2567 187.314 56.938C187.314 53.5673 187.609 51.1351 188.278 49.1347C188.938 47.1642 189.991 45.5246 191.647 43.7884C192.909 42.4665 195.619 40.8749 198.721 39.5963C201.813 38.3223 204.95 37.5 206.948 37.5C210.481 37.5 215.586 38.927 219.882 40.8375C222.014 41.7858 223.865 42.8173 225.165 43.7854C225.817 44.2711 226.284 44.7073 226.578 45.0721C226.868 45.431 226.894 45.6018 226.895 45.6016C226.895 45.6016 226.895 45.6005 226.895 45.5982C227.053 49.4717 227.519 53.8596 228.094 57.5196C228.382 59.3495 228.7 61.0178 229.026 62.3607C229.334 63.6274 229.696 64.8165 230.141 65.5185L230.142 65.5189C230.921 66.7463 231.232 67.7346 231.259 68.3478C231.272 68.6359 231.219 68.7603 231.205 68.7866C231.2 68.7894 231.191 68.7934 231.177 68.7979L231.176 68.7981C229.699 69.291 229.017 70.7216 228.661 72.173C228.287 73.6956 228.13 75.7951 228.117 78.4927C228.104 81.1223 227.766 82.1868 227.307 82.6914C226.895 83.1434 226.041 83.5 223.692 83.5C222.818 83.5 222.063 83.5148 221.442 83.5852C220.84 83.6535 220.179 83.7908 219.614 84.1647C218.973 84.5893 218.638 85.1907 218.476 85.813C218.333 86.3647 218.314 86.9849 218.314 87.566C218.314 88.7475 217.857 90.6098 217.359 91.5412C217.089 92.0448 216.827 92.6134 216.728 93.2372C216.62 93.9179 216.719 94.5697 217.015 95.2099C217.288 95.803 217.718 96.3566 218.221 96.9061C218.732 97.463 219.391 98.0921 220.193 98.8277L220.194 98.828C220.974 99.5427 222.076 100.924 223.326 102.74C224.556 104.527 225.87 106.647 227.074 108.766C228.28 110.886 229.364 112.982 230.141 114.721C230.531 115.592 230.834 116.354 231.037 116.972C231.253 117.628 231.312 117.995 231.312 118.13C231.313 119.145 231.474 120.312 232.38 121.259C233.227 122.145 234.495 122.586 236.022 122.853C239.085 123.39 244.458 123.412 253.641 123.273L271.685 123L273.809 122.968L273.068 120.977L268.603 108.977C264.51 97.9782 259.674 85.1525 252.197 65.4674L250.795 66L252.197 65.4673C250.632 61.3466 245.228 46.9504 240.189 33.4746C235.157 20.0186 230.411 7.49336 229.654 5.67349L228.301 2.42349L227.916 1.5H226.916H207.4C198.282 1.5 193.295 1.5282 190.477 1.79506C189.082 1.92728 188.028 2.13095 187.226 2.52751C186.305 2.98303 185.849 3.62307 185.52 4.23909ZM3 1.5H1.5V3V36V37.5H3H26.8208H27.6629L28.1014 36.7811C30.035 33.611 33.5217 31.5 37.5 31.5C43.5751 31.5 48.5 36.4249 48.5 42.5C48.5 48.5751 43.5751 53.5 37.5 53.5C33.5217 53.5 30.035 51.389 28.1014 48.2189L27.6629 47.5H26.8208H3H1.5V49V122V123.5H3H43H44.5V122V96.5009V95.7516L43.9009 95.3016C41.2257 93.2922 39.5 90.0978 39.5 86.5C39.5 80.4249 44.4249 75.5 50.5 75.5C56.5751 75.5 61.5 80.4249 61.5 86.5C61.5 90.0978 59.7743 93.2922 57.0991 95.3016L56.5 95.7516V96.5009V122V123.5H58H113H115.371L114.355 121.357L91.9954 74.2071C105.256 68.2777 114.5 54.9701 114.5 39.5C114.5 19.1841 98.5574 2.59196 78.5 1.55175V1.5H77H3Z" stroke="black" stroke-width="3"/>
</svg>
