<svg width="456" height="129" viewBox="0 0 456 129" fill="none" xmlns="http://www.w3.org/2000/svg">
<mask id="path-1-outside-1_16_1135" maskUnits="userSpaceOnUse" x="0" y="0" width="456" height="129" fill="black">
<rect fill="white" width="456" height="129"/>
<path d="M5 5H79V5.00335C98.9279 5.27091 115 21.5085 115 41.5C115 56.9645 105.383 70.1827 91.8028 75.5H92L115 124H60V98.5009C63.0361 96.2204 65 92.5895 65 88.5C65 81.5964 59.4036 76 52.5 76C45.5964 76 40 81.5964 40 88.5C40 92.5895 41.9639 96.2204 45 98.5009V124H5V51H28.8208C31.0154 54.598 34.9772 57 39.5 57C46.4036 57 52 51.4036 52 44.5C52 37.5964 46.4036 32 39.5 32C34.9772 32 31.0154 34.402 28.8208 38H5V5Z"/>
<path d="M392 5H352V104H352.023C352.545 115.134 361.737 124 373 124H425L446 92H392V5Z"/>
<path d="M221.732 124H259.5L215 5H176L131 124H165L166.115 117.5C167.323 110.452 169.592 105.732 178.371 92C183.302 84.288 183.716 80.448 179.994 76.951C176.093 73.287 173.546 66.565 173.546 59.938C173.546 53.05 174.742 49.476 178.294 45.753C181.263 42.641 190.097 39 194.68 39C202.343 39 215.984 45.066 216.126 48.537C216.437 56.156 217.962 65.858 219.14 67.715C220.849 70.407 220.95 72.699 219.383 73.221C217.98 73.689 217.375 76.153 217.349 81.5C217.324 86.705 216.144 88 211.424 88C207.928 88 207.546 88.253 207.546 90.566C207.546 91.977 207.036 94.085 206.413 95.249C205.424 97.096 205.748 97.797 208.939 100.722C212.593 104.07 220.54 118.044 220.544 121.128C220.545 122.264 220.786 123.075 221.732 123.644V124Z"/>
<path d="M335 5H276V124H287.245L288.348 117.557C289.891 108.549 293.672 100.905 299.206 95.602L303.93 91.076L301.687 85.788C301.071 84.337 300.428 82.9285 299.888 81.8271L299.82 81.8841C299.413 82.2234 298.979 82.7087 298.451 83.2985L298.449 83.301C298.376 83.383 298.301 83.4669 298.224 83.5527C297.604 84.243 296.881 85.0256 296.009 85.7579C294.932 86.6618 293.629 87.4878 292 87.9918V88H291.974C290.952 88.3134 289.802 88.5 288.5 88.5V88L288.342 88.4743C287.81 88.2971 287.418 87.8745 287.133 87.4241C286.842 86.9668 286.623 86.4212 286.46 85.8991C286.137 84.8645 286 83.8131 286 83.5H286.081C286.071 83.4503 286.061 83.4004 286.051 83.3502L286.026 83.3419L286.033 83.3197L286.041 83.3C285.645 81.377 285.02 79.0985 284.534 77.858C283.845 76.101 283.823 74.037 284.468 71.701C285.046 69.608 285.073 67.822 284.534 67.283C283.408 66.157 285.042 57.078 287.081 53.135C288.718 49.969 294.028 47 298.052 47C300.601 47 300.651 47.133 300.651 53.945C300.651 60.513 300.799 60.962 303.365 62.195C304.857 62.913 306.745 64.689 307.56 66.143C308.834 68.417 308.851 69.363 307.682 72.907C306.425 76.714 306.502 77.426 308.689 82.264C311.703 88.93 312.516 90 314.562 90C316.888 90 322.345 99.412 323.699 105.76C324.316 108.652 324.67 113.941 324.486 117.512L324.151 124H335V5Z"/>
<path fill-rule="evenodd" clip-rule="evenodd" d="M313 115.85C312.515 115.948 312.014 116 311.5 116C307.358 116 304 112.642 304 108.5C304 104.358 307.358 101 311.5 101C315.642 101 319 104.358 319 108.5C319 112.128 316.423 115.155 313 115.85ZM317 108.5C317 111.538 314.538 114 311.5 114C308.462 114 306 111.538 306 108.5C306 105.462 308.462 103 311.5 103C314.538 103 317 105.462 317 108.5Z"/>
<path fill-rule="evenodd" clip-rule="evenodd" d="M306 70C306 73.3137 303.314 76 300 76C296.686 76 294 73.3137 294 70C294 66.6863 296.686 64 300 64C303.314 64 306 66.6863 306 70ZM300 74C302.209 74 304 72.2091 304 70C304 67.7909 302.209 66 300 66C297.791 66 296 67.7909 296 70C296 72.2091 297.791 74 300 74Z"/>
</mask>
<path d="M5 5H79V5.00335C98.9279 5.27091 115 21.5085 115 41.5C115 56.9645 105.383 70.1827 91.8028 75.5H92L115 124H60V98.5009C63.0361 96.2204 65 92.5895 65 88.5C65 81.5964 59.4036 76 52.5 76C45.5964 76 40 81.5964 40 88.5C40 92.5895 41.9639 96.2204 45 98.5009V124H5V51H28.8208C31.0154 54.598 34.9772 57 39.5 57C46.4036 57 52 51.4036 52 44.5C52 37.5964 46.4036 32 39.5 32C34.9772 32 31.0154 34.402 28.8208 38H5V5Z" stroke="black" stroke-width="10" mask="url(#path-1-outside-1_16_1135)"/>
<path d="M392 5H352V104H352.023C352.545 115.134 361.737 124 373 124H425L446 92H392V5Z" stroke="black" stroke-width="10" mask="url(#path-1-outside-1_16_1135)"/>
<path d="M221.732 124H259.5L215 5H176L131 124H165L166.115 117.5C167.323 110.452 169.592 105.732 178.371 92C183.302 84.288 183.716 80.448 179.994 76.951C176.093 73.287 173.546 66.565 173.546 59.938C173.546 53.05 174.742 49.476 178.294 45.753C181.263 42.641 190.097 39 194.68 39C202.343 39 215.984 45.066 216.126 48.537C216.437 56.156 217.962 65.858 219.14 67.715C220.849 70.407 220.95 72.699 219.383 73.221C217.98 73.689 217.375 76.153 217.349 81.5C217.324 86.705 216.144 88 211.424 88C207.928 88 207.546 88.253 207.546 90.566C207.546 91.977 207.036 94.085 206.413 95.249C205.424 97.096 205.748 97.797 208.939 100.722C212.593 104.07 220.54 118.044 220.544 121.128C220.545 122.264 220.786 123.075 221.732 123.644V124Z" stroke="black" stroke-width="10" mask="url(#path-1-outside-1_16_1135)"/>
<path d="M335 5H276V124H287.245L288.348 117.557C289.891 108.549 293.672 100.905 299.206 95.602L303.93 91.076L301.687 85.788C301.071 84.337 300.428 82.9285 299.888 81.8271L299.82 81.8841C299.413 82.2234 298.979 82.7087 298.451 83.2985L298.449 83.301C298.376 83.383 298.301 83.4669 298.224 83.5527C297.604 84.243 296.881 85.0256 296.009 85.7579C294.932 86.6618 293.629 87.4878 292 87.9918V88H291.974C290.952 88.3134 289.802 88.5 288.5 88.5V88L288.342 88.4743C287.81 88.2971 287.418 87.8745 287.133 87.4241C286.842 86.9668 286.623 86.4212 286.46 85.8991C286.137 84.8645 286 83.8131 286 83.5H286.081C286.071 83.4503 286.061 83.4004 286.051 83.3502L286.026 83.3419L286.033 83.3197L286.041 83.3C285.645 81.377 285.02 79.0985 284.534 77.858C283.845 76.101 283.823 74.037 284.468 71.701C285.046 69.608 285.073 67.822 284.534 67.283C283.408 66.157 285.042 57.078 287.081 53.135C288.718 49.969 294.028 47 298.052 47C300.601 47 300.651 47.133 300.651 53.945C300.651 60.513 300.799 60.962 303.365 62.195C304.857 62.913 306.745 64.689 307.56 66.143C308.834 68.417 308.851 69.363 307.682 72.907C306.425 76.714 306.502 77.426 308.689 82.264C311.703 88.93 312.516 90 314.562 90C316.888 90 322.345 99.412 323.699 105.76C324.316 108.652 324.67 113.941 324.486 117.512L324.151 124H335V5Z" stroke="black" stroke-width="10" mask="url(#path-1-outside-1_16_1135)"/>
<path fill-rule="evenodd" clip-rule="evenodd" d="M313 115.85C312.515 115.948 312.014 116 311.5 116C307.358 116 304 112.642 304 108.5C304 104.358 307.358 101 311.5 101C315.642 101 319 104.358 319 108.5C319 112.128 316.423 115.155 313 115.85ZM317 108.5C317 111.538 314.538 114 311.5 114C308.462 114 306 111.538 306 108.5C306 105.462 308.462 103 311.5 103C314.538 103 317 105.462 317 108.5Z" stroke="black" stroke-width="10" mask="url(#path-1-outside-1_16_1135)"/>
<path fill-rule="evenodd" clip-rule="evenodd" d="M306 70C306 73.3137 303.314 76 300 76C296.686 76 294 73.3137 294 70C294 66.6863 296.686 64 300 64C303.314 64 306 66.6863 306 70ZM300 74C302.209 74 304 72.2091 304 70C304 67.7909 302.209 66 300 66C297.791 66 296 67.7909 296 70C296 72.2091 297.791 74 300 74Z" stroke="black" stroke-width="10" mask="url(#path-1-outside-1_16_1135)"/>
</svg>
