<svg width="420" height="119" viewBox="0 0 420 119" fill="none" xmlns="http://www.w3.org/2000/svg">
<path d="M0 0H74V0.00335473C93.9279 0.27091 110 16.5085 110 36.5C110 51.9645 100.383 65.1827 86.8028 70.5H87L110 119H55V93.5009C58.0361 91.2204 60 87.5895 60 83.5C60 76.5964 54.4036 71 47.5 71C40.5964 71 35 76.5964 35 83.5C35 87.5895 36.9639 91.2204 40 93.5009V119H0V46H23.8208C26.0154 49.598 29.9772 52 34.5 52C41.4036 52 47 46.4036 47 39.5C47 32.5964 41.4036 27 34.5 27C29.9772 27 26.0154 29.402 23.8208 33H0V0Z" fill="#00FF00"/>
<path d="M366 0H326V99H326.023C326.545 110.134 335.737 119 347 119H399L420 87H366V0Z" fill="#00FF00"/>
<path d="M205.732 119H243.5L199 0H160L115 119H149L150.115 112.5C151.323 105.452 153.592 100.732 162.371 87C167.302 79.288 167.716 75.448 163.994 71.951C160.093 68.287 157.546 61.565 157.546 54.938C157.546 48.05 158.742 44.476 162.294 40.753C165.263 37.641 174.097 34 178.68 34C186.343 34 199.984 40.066 200.126 43.537C200.437 51.156 201.962 60.858 203.14 62.715C204.849 65.407 204.95 67.699 203.383 68.221C201.98 68.689 201.375 71.153 201.349 76.5C201.324 81.705 200.144 83 195.424 83C191.928 83 191.546 83.253 191.546 85.566C191.546 86.977 191.036 89.085 190.413 90.249C189.424 92.096 189.748 92.797 192.939 95.722C196.593 99.07 204.54 113.044 204.544 116.128C204.545 117.264 204.786 118.075 205.732 118.644V119Z" fill="#00FF00"/>
<path d="M314 0H255V119H266.245L267.348 112.557C268.891 103.549 272.672 95.905 278.206 90.602L282.93 86.076L280.687 80.788C280.071 79.337 279.428 77.9285 278.888 76.8271L278.82 76.8841C278.413 77.2234 277.979 77.7087 277.451 78.2985L277.449 78.301C277.376 78.383 277.301 78.4669 277.224 78.5527C276.604 79.243 275.881 80.0256 275.009 80.7579C273.932 81.6618 272.629 82.4878 271 82.9918V83H270.974C269.952 83.3134 268.802 83.5 267.5 83.5V83L267.342 83.4743C266.81 83.2971 266.418 82.8745 266.133 82.4241C265.842 81.9668 265.623 81.4212 265.46 80.8991C265.137 79.8645 265 78.8131 265 78.5H265.081C265.071 78.4503 265.061 78.4004 265.051 78.3502L265.026 78.3419L265.033 78.3197L265.041 78.3C264.645 76.377 264.02 74.0985 263.534 72.858C262.845 71.101 262.823 69.037 263.468 66.701C264.046 64.608 264.073 62.822 263.534 62.283C262.408 61.157 264.042 52.078 266.081 48.135C267.718 44.969 273.028 42 277.052 42C279.601 42 279.651 42.133 279.651 48.945C279.651 55.513 279.799 55.962 282.365 57.195C283.857 57.913 285.745 59.689 286.56 61.143C287.834 63.417 287.851 64.363 286.682 67.907C285.425 71.714 285.502 72.426 287.689 77.264C290.703 83.93 291.516 85 293.562 85C295.888 85 301.345 94.412 302.699 100.76C303.316 103.652 303.67 108.941 303.486 112.512L303.151 119H314V0Z" fill="#00FF00"/>
<path fill-rule="evenodd" clip-rule="evenodd" d="M292 110.85C291.515 110.948 291.014 111 290.5 111C286.358 111 283 107.642 283 103.5C283 99.3579 286.358 96 290.5 96C294.642 96 298 99.3579 298 103.5C298 107.128 295.423 110.155 292 110.85ZM296 103.5C296 106.538 293.538 109 290.5 109C287.462 109 285 106.538 285 103.5C285 100.462 287.462 98 290.5 98C293.538 98 296 100.462 296 103.5Z" fill="#00FF00"/>
<path fill-rule="evenodd" clip-rule="evenodd" d="M285 65C285 68.3137 282.314 71 279 71C275.686 71 273 68.3137 273 65C273 61.6863 275.686 59 279 59C282.314 59 285 61.6863 285 65ZM279 69C281.209 69 283 67.2091 283 65C283 62.7909 281.209 61 279 61C276.791 61 275 62.7909 275 65C275 67.2091 276.791 69 279 69Z" fill="#00FF00"/>
</svg>
